<svg width="32" height="32" viewBox="0 0 32 32" fill="none" xmlns="http://www.w3.org/2000/svg">
<mask id="mask0_1682_1234" style="mask-type:luminance" maskUnits="userSpaceOnUse" x="1" y="1" width="30" height="30">
<path d="M15.9998 29.3333C23.3638 29.3333 29.3332 23.364 29.3332 16C29.3332 8.63596 23.3638 2.66663 15.9998 2.66663C8.63584 2.66663 2.6665 8.63596 2.6665 16C2.6665 23.364 8.63584 29.3333 15.9998 29.3333Z" fill="white" stroke="white" stroke-width="2" stroke-linejoin="round"/>
<path d="M9.33301 18C10.4376 18 11.333 17.1046 11.333 16C11.333 14.8954 10.4376 14 9.33301 14C8.22844 14 7.33301 14.8954 7.33301 16C7.33301 17.1046 8.22844 18 9.33301 18Z" fill="black"/>
<path d="M16 18C17.1046 18 18 17.1046 18 16C18 14.8954 17.1046 14 16 14C14.8954 14 14 14.8954 14 16C14 17.1046 14.8954 18 16 18Z" fill="black"/>
<path d="M22.6665 18C23.7711 18 24.6665 17.1046 24.6665 16C24.6665 14.8954 23.7711 14 22.6665 14C21.5619 14 20.6665 14.8954 20.6665 16C20.6665 17.1046 21.5619 18 22.6665 18Z" fill="black"/>
</mask>
<g mask="url(#mask0_1682_1234)">
<path d="M0 0H32V32H0V0Z" fill="#FE8401"/>
</g>
</svg>
