<svg width="26" height="25" viewBox="0 0 26 25" fill="none" xmlns="http://www.w3.org/2000/svg">
<path d="M26.0021 5.92459C25.9968 5.34297 25.8355 4.77343 25.535 4.27541C25.2345 3.77739 24.8059 3.36913 24.2938 3.09324C23.7818 2.81735 23.205 2.68393 22.6239 2.70691C22.0427 2.72989 21.4783 2.90842 20.9896 3.22388C20.5009 3.53933 20.1059 3.98016 19.8456 4.50035C19.5854 5.02054 19.4696 5.60104 19.5102 6.18127C19.5508 6.7615 19.7464 7.3202 20.0765 7.79907C20.4067 8.27794 20.8593 8.65944 21.3871 8.90376C20.8779 10.3988 19.7296 13.0096 17.8771 13.0096C15.3854 13.0096 14.6271 9.60793 14.0529 6.32543C14.7812 6.07658 15.3976 5.57737 15.7922 4.91665C16.1869 4.25593 16.3343 3.47659 16.2082 2.71738C16.082 1.95817 15.6906 1.26835 15.1035 0.770735C14.5164 0.273119 13.7717 0 13.0021 0C12.2325 0 11.4879 0.273119 10.9007 0.770735C10.3136 1.26835 9.92218 1.95817 9.79606 2.71738C9.66993 3.47659 9.81732 4.25593 10.212 4.91665C10.6067 5.57737 11.223 6.07658 11.9513 6.32543C11.3446 9.67293 10.6079 13.0096 8.12712 13.0096C6.27462 13.0096 5.12628 10.3988 4.61712 8.90376C5.30657 8.58408 5.86219 8.03291 6.1874 7.34606C6.5126 6.6592 6.58683 5.8801 6.39717 5.14419C6.20751 4.40828 5.76596 3.76211 5.14927 3.318C4.53259 2.87389 3.77977 2.65993 3.0217 2.71331C2.26362 2.7667 1.54822 3.08405 0.999868 3.61021C0.451514 4.13636 0.104882 4.83804 0.0202312 5.59327C-0.0644196 6.34849 0.118264 7.1095 0.536524 7.744C0.954784 8.3785 1.58217 8.84636 2.30962 9.06626L4.07545 19.6829C4.11698 19.9393 4.24921 20.1722 4.44805 20.3392C4.64689 20.5062 4.89912 20.5963 5.15878 20.5929H20.8671C21.1268 20.5963 21.379 20.5062 21.5778 20.3392C21.7767 20.1722 21.9089 19.9393 21.9504 19.6829L23.7163 9.06626C24.3848 8.85862 24.9685 8.44067 25.3803 7.8746C25.7922 7.30853 26.0103 6.6246 26.0021 5.92459ZM20.8563 22.1746H5.14795C4.86063 22.1746 4.58508 22.2887 4.38192 22.4919C4.17875 22.6951 4.06462 22.9706 4.06462 23.2579C4.06462 23.5452 4.17875 23.8208 4.38192 24.024C4.58508 24.2271 4.86063 24.3413 5.14795 24.3413H20.8563C21.1436 24.3413 21.4191 24.2271 21.6223 24.024C21.8255 23.8208 21.9396 23.5452 21.9396 23.2579C21.9396 22.9706 21.8255 22.6951 21.6223 22.4919C21.4191 22.2887 21.1436 22.1746 20.8563 22.1746Z" fill="#FFC600"/>
</svg>
