<svg width="32" height="32" viewBox="0 0 32 32" fill="none" xmlns="http://www.w3.org/2000/svg">
<path d="M11.2002 17.6001H20.8002V27.2001H11.2002V17.6001Z" fill="url(#paint0_linear_2263_1351)"/>
<path d="M17.6046 5.41454C17.1641 5.01875 16.5928 4.7998 16.0006 4.7998C15.4084 4.7998 14.8371 5.01875 14.3966 5.41454L5.5966 13.3217C5.34591 13.5468 5.1454 13.8221 5.00812 14.1297C4.87084 14.4374 4.79986 14.7705 4.7998 15.1073V24.7937C4.7998 25.4303 5.05266 26.0407 5.50275 26.4908C5.95284 26.9409 6.56329 27.1937 7.1998 27.1937H9.5998V27.2001H12.7998V18.3937C12.7998 18.1816 12.8841 17.9781 13.0341 17.8281C13.1841 17.678 13.3876 17.5937 13.5998 17.5937H18.3998C18.612 17.5937 18.8155 17.678 18.9655 17.8281C19.1155 17.9781 19.1998 18.1816 19.1998 18.3937V27.2001H23.9998V27.1937H24.7998C25.4363 27.1937 26.0468 26.9409 26.4969 26.4908C26.9469 26.0407 27.1998 25.4303 27.1998 24.7937V15.1073C27.2 14.7706 27.1292 14.4375 26.9922 14.1299C26.8552 13.8223 26.655 13.5469 26.4046 13.3217L17.6046 5.41454Z" fill="url(#paint1_linear_2263_1351)"/>
<path fill-rule="evenodd" clip-rule="evenodd" d="M17.0304 3.58221C16.7439 3.33514 16.3782 3.19922 16 3.19922C15.6217 3.19922 15.256 3.33514 14.9696 3.58221L3.72156 13.347C3.5693 13.4773 3.44479 13.6369 3.35545 13.8163C3.26611 13.9956 3.21376 14.1912 3.20152 14.3912C3.18928 14.5912 3.2174 14.7917 3.2842 14.9806C3.351 15.1695 3.45512 15.3431 3.59036 15.491C3.86748 15.7925 4.2511 15.9744 4.65996 15.998C5.06881 16.0216 5.4708 15.8851 5.78076 15.6174L16 6.74541L26.2192 15.6174C26.5293 15.8849 26.9314 16.0211 27.3403 15.9972C27.7492 15.9733 28.1327 15.7912 28.4096 15.4894C28.5446 15.3416 28.6485 15.1681 28.7151 14.9793C28.7818 14.7905 28.8098 14.5903 28.7976 14.3904C28.7853 14.1906 28.7331 13.9953 28.6439 13.816C28.5547 13.6368 28.4304 13.4773 28.2784 13.347L17.0304 3.58221Z" fill="url(#paint2_linear_2263_1351)"/>
<path fill-rule="evenodd" clip-rule="evenodd" d="M14.9692 3.58201C15.2556 3.33537 15.6209 3.19971 15.9988 3.19971C16.3767 3.19971 16.7421 3.33537 17.0284 3.58201L28.278 13.3468C28.918 13.9036 28.9772 14.862 28.4092 15.4908C28.1321 15.7923 27.7485 15.9742 27.3396 15.9978C26.9308 16.0213 26.5288 15.8849 26.2188 15.6172L15.9996 6.74521L5.78043 15.6172C5.47026 15.8847 5.06816 16.0209 4.6593 15.997C4.25044 15.9731 3.86694 15.791 3.59003 15.4892C3.45504 15.3414 3.35113 15.1679 3.28447 14.9791C3.21782 14.7903 3.18978 14.5901 3.20201 14.3902C3.21425 14.1904 3.26652 13.9951 3.35571 13.8158C3.4449 13.6366 3.5692 13.4771 3.72123 13.3468L14.9692 3.58201Z" fill="url(#paint3_linear_2263_1351)"/>
<defs>
<linearGradient id="paint0_linear_2263_1351" x1="16.0002" y1="17.6001" x2="10.613" y2="29.5761" gradientUnits="userSpaceOnUse">
<stop stop-color="#944600"/>
<stop offset="1" stop-color="#CD8E02"/>
</linearGradient>
<linearGradient id="paint1_linear_2263_1351" x1="6.9374" y1="3.70414" x2="28.9182" y2="21.5697" gradientUnits="userSpaceOnUse">
<stop stop-color="#FFD394"/>
<stop offset="1" stop-color="#FFB357"/>
</linearGradient>
<linearGradient id="paint2_linear_2263_1351" x1="11.864" y1="0.159806" x2="17.4864" y2="15.3662" gradientUnits="userSpaceOnUse">
<stop stop-color="#FF921F"/>
<stop offset="1" stop-color="#EB4824"/>
</linearGradient>
<linearGradient id="paint3_linear_2263_1351" x1="11.8636" y1="0.159606" x2="17.486" y2="15.366" gradientUnits="userSpaceOnUse">
<stop stop-color="#FF921F"/>
<stop offset="1" stop-color="#EB4824"/>
</linearGradient>
</defs>
</svg>
