<svg width="32" height="32" viewBox="0 0 32 32" fill="none" xmlns="http://www.w3.org/2000/svg">
<path d="M14.8612 4.0305C15.3678 3.11984 15.6212 2.6665 15.9998 2.6665C16.3785 2.6665 16.6318 3.11984 17.1385 4.0305L17.2692 4.26517C17.4132 4.52384 17.4852 4.65184 17.5972 4.73717C17.7105 4.8225 17.8505 4.8545 18.1305 4.91717L18.3838 4.97584C19.3678 5.1985 19.8598 5.30917 19.9772 5.68517C20.0945 6.06117 19.7585 6.4545 19.0878 7.2385L18.9145 7.44117C18.7238 7.66384 18.6278 7.7745 18.5852 7.91317C18.5425 8.05184 18.5572 8.19984 18.5852 8.49717L18.6118 8.76784C18.7132 9.8145 18.7638 10.3385 18.4585 10.5705C18.1518 10.8038 17.6905 10.5905 16.7692 10.1665L16.5318 10.0572C16.2692 9.93717 16.1385 9.87584 15.9998 9.87584C15.8612 9.87584 15.7305 9.93717 15.4678 10.0572L15.2305 10.1665C14.3092 10.5905 13.8478 10.8038 13.5412 10.5705C13.2345 10.3385 13.2865 9.8145 13.3878 8.76784L13.4145 8.49717C13.4425 8.19984 13.4572 8.05184 13.4145 7.91317C13.3718 7.7745 13.2758 7.66384 13.0852 7.44117L12.9118 7.2385C12.2412 6.4545 11.9052 6.0625 12.0225 5.68517C12.1398 5.30917 12.6318 5.1985 13.6158 4.97584L13.8692 4.91717C14.1492 4.8545 14.2892 4.82384 14.4025 4.73717C14.5145 4.65184 14.5865 4.52384 14.7305 4.26517L14.8612 4.0305ZM17.3332 13.3332H14.6665C12.7812 13.3332 11.8385 13.3332 11.2532 13.9198C10.6665 14.5038 10.6665 15.4465 10.6665 17.3332V29.3332H21.3332V17.3332C21.3332 15.4478 21.3332 14.5052 20.7465 13.9198C20.1625 13.3332 19.2198 13.3332 17.3332 13.3332Z" fill="#FE8401"/>
<path opacity="0.5" d="M10.0798 25.9202C9.49584 25.3335 8.55317 25.3335 6.6665 25.3335C4.77984 25.3335 3.8385 25.3335 3.25317 25.9202C2.6665 26.5042 2.6665 27.4468 2.6665 29.3335H10.6665C10.6665 27.4482 10.6665 26.5055 10.0798 25.9202ZM21.3332 25.3335V29.3335H29.3332V25.3335C29.3332 23.4482 29.3332 22.5055 28.7465 21.9202C28.1625 21.3335 27.2198 21.3335 25.3332 21.3335C23.4465 21.3335 22.5052 21.3335 21.9198 21.9202C21.3332 22.5042 21.3332 23.4468 21.3332 25.3335Z" fill="#FE8401"/>
</svg>
