<svg width="32" height="32" viewBox="0 0 32 32" fill="none" xmlns="http://www.w3.org/2000/svg">
<path d="M3.3335 12.6665H28.6668V25.3332H3.3335V12.6665Z" fill="#FFCF91"/>
<path d="M3.3335 25.3335H28.6668V28.0002H3.3335V25.3335Z" fill="#FFA047"/>
<path d="M18 16H26V28H18V16Z" fill="#A55B01"/>
<path d="M6 16H15.3333V23.3333H6V16Z" fill="#FDF0E3"/>
<path d="M6.6665 16.6665H14.6665V22.6665H6.6665V16.6665Z" fill="#E5991E"/>
<path d="M24.3333 22.3335C24.1333 22.3335 24 22.4668 24 22.6668V24.0002C24 24.2002 24.1333 24.3335 24.3333 24.3335C24.5333 24.3335 24.6667 24.2002 24.6667 24.0002V22.6668C24.6667 22.4668 24.5333 22.3335 24.3333 22.3335Z" fill="white"/>
<path d="M16 14.6665C17.1046 14.6665 18 13.7711 18 12.6665C18 11.5619 17.1046 10.6665 16 10.6665C14.8954 10.6665 14 11.5619 14 12.6665C14 13.7711 14.8954 14.6665 16 14.6665Z" fill="#DB7500"/>
<path d="M24 14.6665C25.1046 14.6665 26 13.7711 26 12.6665C26 11.5619 25.1046 10.6665 24 10.6665C22.8954 10.6665 22 11.5619 22 12.6665C22 13.7711 22.8954 14.6665 24 14.6665Z" fill="#DB7500"/>
<path d="M8 14.6665C9.10457 14.6665 10 13.7711 10 12.6665C10 11.5619 9.10457 10.6665 8 10.6665C6.89543 10.6665 6 11.5619 6 12.6665C6 13.7711 6.89543 14.6665 8 14.6665Z" fill="#DB7500"/>
<path d="M26.6667 4H5.33333C4.6 4 4 4.6 4 5.33333V7.33333H28V5.33333C28 4.6 27.4 4 26.6667 4ZM14 7.33333H18V12.6667H14V7.33333ZM24.6667 7.33333H21.3333L22 12.6667H26L24.6667 7.33333ZM7.33333 7.33333H10.6667L10 12.6667H6L7.33333 7.33333Z" fill="#FF8B25"/>
<path d="M20 14.6665C21.1046 14.6665 22 13.7711 22 12.6665C22 11.5619 21.1046 10.6665 20 10.6665C18.8954 10.6665 18 11.5619 18 12.6665C18 13.7711 18.8954 14.6665 20 14.6665Z" fill="#FFA000"/>
<path d="M30 12.6665C30 13.7998 29.1333 14.6665 28 14.6665C26.8667 14.6665 26 13.7998 26 12.6665C26 11.5332 26.8667 10.6665 28 10.6665L30 12.6665Z" fill="#FFA000"/>
<path d="M12 14.6665C13.1046 14.6665 14 13.7711 14 12.6665C14 11.5619 13.1046 10.6665 12 10.6665C10.8954 10.6665 10 11.5619 10 12.6665C10 13.7711 10.8954 14.6665 12 14.6665Z" fill="#FFA000"/>
<path d="M2 12.6665C2 13.7998 2.86667 14.6665 4 14.6665C5.13333 14.6665 6 13.7998 6 12.6665C6 11.5332 5.13333 10.6665 4 10.6665L2 12.6665Z" fill="#FFA000"/>
<path d="M21.3333 7.3335H18V12.6668H22L21.3333 7.3335ZM28 7.3335H24.6667L26 12.6668H30L28 7.3335ZM10.6667 7.3335H14V12.6668H10L10.6667 7.3335ZM4 7.3335H7.33333L6 12.6668H2L4 7.3335Z" fill="#FFC107"/>
</svg>
