<svg width="32" height="32" viewBox="0 0 32 32" fill="none" xmlns="http://www.w3.org/2000/svg">
<path d="M16.0003 10C15.3815 10 14.788 10.2458 14.3504 10.6834C13.9128 11.121 13.667 11.7145 13.667 12.3333C13.667 12.9522 13.9128 13.5457 14.3504 13.9832C14.788 14.4208 15.3815 14.6667 16.0003 14.6667C16.6192 14.6667 17.2127 14.4208 17.6502 13.9832C18.0878 13.5457 18.3337 12.9522 18.3337 12.3333C18.3337 11.7145 18.0878 11.121 17.6502 10.6834C17.2127 10.2458 16.6192 10 16.0003 10Z" fill="#FE8401"/>
<path d="M17.9136 2.76691C17.3161 2.48158 16.6624 2.3335 16.0002 2.3335C15.3381 2.3335 14.6844 2.48158 14.0869 2.76691C13.5616 3.01891 13.0802 3.42957 12.4069 4.00424L12.3016 4.09224C11.7202 4.61626 10.9765 4.92459 10.1949 4.96557L10.0589 4.97624C9.17624 5.04691 8.54557 5.09624 7.99624 5.29091C7.37191 5.51148 6.80481 5.8689 6.33648 6.337C5.86815 6.80509 5.51045 7.37201 5.28957 7.99624C5.09624 8.54557 5.04691 9.17624 4.97624 10.0589L4.96557 10.1949C4.92459 10.9765 4.61626 11.7202 4.09224 12.3016L4.00424 12.4056C3.42957 13.0802 3.01757 13.5616 2.76691 14.0869C2.48158 14.6844 2.3335 15.3381 2.3335 16.0002C2.3335 16.6624 2.48158 17.3161 2.76691 17.9136C3.01891 18.4389 3.42957 18.9202 4.00424 19.5936L4.09224 19.6989C4.63891 20.3389 4.89757 20.9509 4.96557 21.8056L4.97624 21.9416C5.04691 22.8242 5.09624 23.4549 5.29091 24.0042C5.51148 24.6286 5.8689 25.1957 6.337 25.664C6.80509 26.1323 7.37201 26.49 7.99624 26.7109C8.10468 26.7482 8.21713 26.7811 8.33357 26.8096L8.33491 25.9496C8.57891 21.1776 12.3629 18.8136 16.0002 18.8136C19.6376 18.8136 23.4216 21.1776 23.6656 25.9496V26.8096C23.7829 26.7811 23.8958 26.7478 24.0042 26.7096C24.6286 26.489 25.1957 26.1316 25.664 25.6635C26.1323 25.1954 26.49 24.6285 26.7109 24.0042C26.9042 23.4549 26.9536 22.8242 27.0242 21.9416L27.0349 21.8056C27.1016 20.9669 27.3522 20.3522 27.9082 19.6989L27.9962 19.5936C28.5709 18.9202 28.9829 18.4389 29.2336 17.9136C29.5189 17.3161 29.667 16.6624 29.667 16.0002C29.667 15.3381 29.5189 14.6844 29.2336 14.0869C28.9816 13.5616 28.5709 13.0802 27.9962 12.4069L27.9082 12.3016C27.3842 11.7202 27.0759 10.9765 27.0349 10.1949L27.0242 10.0589C26.9536 9.17624 26.9042 8.54557 26.7096 7.99624C26.489 7.37191 26.1316 6.80481 25.6635 6.33648C25.1954 5.86815 24.6285 5.51045 24.0042 5.28957C23.4549 5.09624 22.8242 5.04691 21.9416 4.97624L21.8056 4.96557C21.024 4.92459 20.2802 4.61626 19.6989 4.09224L19.5936 4.00424C18.9202 3.42957 18.4389 3.01757 17.9136 2.76691ZM11.6669 12.3336C11.6669 11.1843 12.1235 10.0821 12.9361 9.26944C13.7488 8.45679 14.851 8.00024 16.0002 8.00024C17.1495 8.00024 18.2517 8.45679 19.0644 9.26944C19.877 10.0821 20.3336 11.1843 20.3336 12.3336C20.3336 13.4828 19.877 14.585 19.0644 15.3977C18.2517 16.2104 17.1495 16.6669 16.0002 16.6669C14.851 16.6669 13.7488 16.2104 12.9361 15.3977C12.1235 14.585 11.6669 13.4828 11.6669 12.3336Z" fill="#FE8401"/>
<path d="M21.675 27.0468L21.6684 26.0508C21.4897 22.5735 18.819 20.8135 16.0004 20.8135C13.1817 20.8135 10.511 22.5735 10.3324 26.0508C10.331 26.0775 10.3284 26.4188 10.3257 27.0468C11.099 27.1281 11.6844 27.3801 12.3017 27.9081L12.4057 27.9961C13.0804 28.5708 13.5617 28.9828 14.087 29.2335C14.6845 29.5188 15.3382 29.6669 16.0004 29.6669C16.6625 29.6669 17.3162 29.5188 17.9137 29.2335C18.439 28.9815 18.9204 28.5708 19.5937 27.9961L19.699 27.9081C20.3057 27.3908 20.887 27.1308 21.675 27.0468Z" fill="#FE8401"/>
</svg>
