<svg width="32" height="32" viewBox="0 0 32 32" fill="none" xmlns="http://www.w3.org/2000/svg">
<path d="M16.0003 10C15.3815 10 14.788 10.2458 14.3504 10.6834C13.9128 11.121 13.667 11.7145 13.667 12.3333C13.667 12.9522 13.9128 13.5457 14.3504 13.9832C14.788 14.4208 15.3815 14.6667 16.0003 14.6667C16.6192 14.6667 17.2127 14.4208 17.6502 13.9832C18.0878 13.5457 18.3337 12.9522 18.3337 12.3333C18.3337 11.7145 18.0878 11.121 17.6502 10.6834C17.2127 10.2458 16.6192 10 16.0003 10Z" fill="#FE8401"/>
<path d="M17.9136 2.76666C17.3161 2.48134 16.6624 2.33325 16.0002 2.33325C15.3381 2.33325 14.6844 2.48134 14.0869 2.76666C13.5616 3.01866 13.0802 3.42933 12.4069 4.004L12.3016 4.092C11.7202 4.61602 10.9765 4.92435 10.1949 4.96533L10.0589 4.976C9.17624 5.04666 8.54557 5.096 7.99624 5.29066C7.37191 5.51123 6.80481 5.86866 6.33648 6.33675C5.86815 6.80485 5.51045 7.37177 5.28957 7.996C5.09624 8.54533 5.04691 9.176 4.97624 10.0587L4.96557 10.1947C4.92459 10.9762 4.61626 11.72 4.09224 12.3013L4.00424 12.4053C3.42957 13.08 3.01757 13.5613 2.76691 14.0867C2.48158 14.6841 2.3335 15.3379 2.3335 16C2.3335 16.6621 2.48158 17.3158 2.76691 17.9133C3.01891 18.4387 3.42957 18.92 4.00424 19.5933L4.09224 19.6987C4.63891 20.3387 4.89757 20.9507 4.96557 21.8053L4.97624 21.9413C5.04691 22.824 5.09624 23.4547 5.29091 24.004C5.51148 24.6283 5.8689 25.1954 6.337 25.6638C6.80509 26.1321 7.37201 26.4898 7.99624 26.7107C8.10468 26.748 8.21713 26.7809 8.33357 26.8093L8.33491 25.9493C8.57891 21.1773 12.3629 18.8133 16.0002 18.8133C19.6376 18.8133 23.4216 21.1773 23.6656 25.9493V26.8093C23.7829 26.7809 23.8958 26.7476 24.0042 26.7093C24.6286 26.4888 25.1957 26.1313 25.664 25.6632C26.1323 25.1951 26.49 24.6282 26.7109 24.004C26.9042 23.4547 26.9536 22.824 27.0242 21.9413L27.0349 21.8053C27.1016 20.9667 27.3522 20.352 27.9082 19.6987L27.9962 19.5933C28.5709 18.92 28.9829 18.4387 29.2336 17.9133C29.5189 17.3158 29.667 16.6621 29.667 16C29.667 15.3379 29.5189 14.6841 29.2336 14.0867C28.9816 13.5613 28.5709 13.08 27.9962 12.4067L27.9082 12.3013C27.3842 11.72 27.0759 10.9762 27.0349 10.1947L27.0242 10.0587C26.9536 9.176 26.9042 8.54533 26.7096 7.996C26.489 7.37166 26.1316 6.80457 25.6635 6.33624C25.1954 5.86791 24.6285 5.51021 24.0042 5.28933C23.4549 5.096 22.8242 5.04666 21.9416 4.976L21.8056 4.96533C21.024 4.92435 20.2802 4.61602 19.6989 4.092L19.5936 4.004C18.9202 3.42933 18.4389 3.01733 17.9136 2.76666ZM11.6669 12.3333C11.6669 11.1841 12.1235 10.0819 12.9361 9.2692C13.7488 8.45654 14.851 8 16.0002 8C17.1495 8 18.2517 8.45654 19.0644 9.2692C19.877 10.0819 20.3336 11.1841 20.3336 12.3333C20.3336 13.4826 19.877 14.5848 19.0644 15.3975C18.2517 16.2101 17.1495 16.6667 16.0002 16.6667C14.851 16.6667 13.7488 16.2101 12.9361 15.3975C12.1235 14.5848 11.6669 13.4826 11.6669 12.3333Z" fill="#FE8401"/>
<path d="M21.675 27.0467L21.6684 26.0507C21.4897 22.5734 18.819 20.8134 16.0004 20.8134C13.1817 20.8134 10.511 22.5734 10.3324 26.0507C10.331 26.0774 10.3284 26.4187 10.3257 27.0467C11.099 27.128 11.6844 27.38 12.3017 27.908L12.4057 27.996C13.0804 28.5707 13.5617 28.9827 14.087 29.2334C14.6845 29.5187 15.3382 29.6668 16.0004 29.6668C16.6625 29.6668 17.3162 29.5187 17.9137 29.2334C18.439 28.9814 18.9204 28.5707 19.5937 27.996L19.699 27.908C20.3057 27.3907 20.887 27.1307 21.675 27.0467Z" fill="#FE8401"/>
</svg>
