<svg width="32" height="32" viewBox="0 0 32 32" fill="none" xmlns="http://www.w3.org/2000/svg">
<path d="M11.2002 17.6H20.8002V27.2H11.2002V17.6Z" fill="url(#paint0_linear_1682_1184)"/>
<path d="M17.6046 5.41441C17.1641 5.01863 16.5928 4.79968 16.0006 4.79968C15.4084 4.79968 14.8371 5.01863 14.3966 5.41441L5.5966 13.3216C5.34591 13.5467 5.1454 13.8219 5.00812 14.1296C4.87084 14.4372 4.79986 14.7703 4.7998 15.1072V24.7936C4.7998 25.4301 5.05266 26.0406 5.50275 26.4907C5.95284 26.9408 6.56329 27.1936 7.1998 27.1936H9.5998V27.2H12.7998V18.3936C12.7998 18.1814 12.8841 17.978 13.0341 17.8279C13.1841 17.6779 13.3876 17.5936 13.5998 17.5936H18.3998C18.612 17.5936 18.8155 17.6779 18.9655 17.8279C19.1155 17.978 19.1998 18.1814 19.1998 18.3936V27.2H23.9998V27.1936H24.7998C25.4363 27.1936 26.0468 26.9408 26.4969 26.4907C26.9469 26.0406 27.1998 25.4301 27.1998 24.7936V15.1072C27.2 14.7705 27.1292 14.4374 26.9922 14.1298C26.8552 13.8222 26.655 13.5468 26.4046 13.3216L17.6046 5.41441Z" fill="url(#paint1_linear_1682_1184)"/>
<path fill-rule="evenodd" clip-rule="evenodd" d="M17.0304 3.58245C16.7439 3.33538 16.3782 3.19946 16 3.19946C15.6217 3.19946 15.256 3.33538 14.9696 3.58245L3.72156 13.3473C3.5693 13.4775 3.44479 13.6371 3.35545 13.8165C3.26611 13.9959 3.21376 14.1914 3.20152 14.3914C3.18928 14.5915 3.2174 14.7919 3.2842 14.9809C3.351 15.1698 3.45512 15.3434 3.59036 15.4913C3.86748 15.7928 4.2511 15.9746 4.65996 15.9982C5.06881 16.0218 5.4708 15.8853 5.78076 15.6177L16 6.74565L26.2192 15.6177C26.5293 15.8851 26.9314 16.0213 27.3403 15.9974C27.7492 15.9735 28.1327 15.7914 28.4096 15.4897C28.5446 15.3418 28.6485 15.1683 28.7151 14.9795C28.7818 14.7908 28.8098 14.5905 28.7976 14.3907C28.7853 14.1908 28.7331 13.9955 28.6439 13.8163C28.5547 13.637 28.4304 13.4775 28.2784 13.3473L17.0304 3.58245Z" fill="url(#paint2_linear_1682_1184)"/>
<path fill-rule="evenodd" clip-rule="evenodd" d="M14.9692 3.58213C15.2556 3.33549 15.6209 3.19983 15.9988 3.19983C16.3767 3.19983 16.7421 3.33549 17.0284 3.58213L28.278 13.3469C28.918 13.9037 28.9772 14.8621 28.4092 15.4909C28.1321 15.7925 27.7485 15.9743 27.3396 15.9979C26.9308 16.0215 26.5288 15.885 26.2188 15.6173L15.9996 6.74533L5.78043 15.6173C5.47026 15.8848 5.06816 16.021 4.6593 15.9971C4.25044 15.9732 3.86694 15.7911 3.59003 15.4893C3.45504 15.3415 3.35113 15.168 3.28447 14.9792C3.21782 14.7904 3.18978 14.5902 3.20201 14.3903C3.21425 14.1905 3.26652 13.9952 3.35571 13.8159C3.4449 13.6367 3.5692 13.4772 3.72123 13.3469L14.9692 3.58213Z" fill="url(#paint3_linear_1682_1184)"/>
<defs>
<linearGradient id="paint0_linear_1682_1184" x1="16.0002" y1="17.6" x2="10.613" y2="29.576" gradientUnits="userSpaceOnUse">
<stop stop-color="#944600"/>
<stop offset="1" stop-color="#CD8E02"/>
</linearGradient>
<linearGradient id="paint1_linear_1682_1184" x1="6.9374" y1="3.70401" x2="28.9182" y2="21.5696" gradientUnits="userSpaceOnUse">
<stop stop-color="#FFD394"/>
<stop offset="1" stop-color="#FFB357"/>
</linearGradient>
<linearGradient id="paint2_linear_1682_1184" x1="11.864" y1="0.160051" x2="17.4864" y2="15.3665" gradientUnits="userSpaceOnUse">
<stop stop-color="#FF921F"/>
<stop offset="1" stop-color="#EB4824"/>
</linearGradient>
<linearGradient id="paint3_linear_1682_1184" x1="11.8636" y1="0.159728" x2="17.486" y2="15.3661" gradientUnits="userSpaceOnUse">
<stop stop-color="#FF921F"/>
<stop offset="1" stop-color="#EB4824"/>
</linearGradient>
</defs>
</svg>
