<svg width="32" height="32" viewBox="0 0 32 32" fill="none" xmlns="http://www.w3.org/2000/svg">
<path d="M14.8612 4.03063C15.3678 3.11996 15.6212 2.66663 15.9998 2.66663C16.3785 2.66663 16.6318 3.11996 17.1385 4.03063L17.2692 4.26529C17.4132 4.52396 17.4852 4.65196 17.5972 4.73729C17.7105 4.82263 17.8505 4.85463 18.1305 4.91729L18.3838 4.97596C19.3678 5.19863 19.8598 5.30929 19.9772 5.68529C20.0945 6.06129 19.7585 6.45463 19.0878 7.23863L18.9145 7.44129C18.7238 7.66396 18.6278 7.77463 18.5852 7.91329C18.5425 8.05196 18.5572 8.19996 18.5852 8.49729L18.6118 8.76796C18.7132 9.81463 18.7638 10.3386 18.4585 10.5706C18.1518 10.804 17.6905 10.5906 16.7692 10.1666L16.5318 10.0573C16.2692 9.93729 16.1385 9.87596 15.9998 9.87596C15.8612 9.87596 15.7305 9.93729 15.4678 10.0573L15.2305 10.1666C14.3092 10.5906 13.8478 10.804 13.5412 10.5706C13.2345 10.3386 13.2865 9.81463 13.3878 8.76796L13.4145 8.49729C13.4425 8.19996 13.4572 8.05196 13.4145 7.91329C13.3718 7.77463 13.2758 7.66396 13.0852 7.44129L12.9118 7.23863C12.2412 6.45463 11.9052 6.06263 12.0225 5.68529C12.1398 5.30929 12.6318 5.19863 13.6158 4.97596L13.8692 4.91729C14.1492 4.85463 14.2892 4.82396 14.4025 4.73729C14.5145 4.65196 14.5865 4.52396 14.7305 4.26529L14.8612 4.03063ZM17.3332 13.3333H14.6665C12.7812 13.3333 11.8385 13.3333 11.2532 13.92C10.6665 14.504 10.6665 15.4466 10.6665 17.3333V29.3333H21.3332V17.3333C21.3332 15.448 21.3332 14.5053 20.7465 13.92C20.1625 13.3333 19.2198 13.3333 17.3332 13.3333Z" fill="#FE8401"/>
<path opacity="0.5" d="M10.0798 25.92C9.49584 25.3334 8.55317 25.3334 6.6665 25.3334C4.77984 25.3334 3.8385 25.3334 3.25317 25.92C2.6665 26.504 2.6665 27.4467 2.6665 29.3334H10.6665C10.6665 27.448 10.6665 26.5054 10.0798 25.92ZM21.3332 25.3334V29.3334H29.3332V25.3334C29.3332 23.448 29.3332 22.5054 28.7465 21.92C28.1625 21.3334 27.2198 21.3334 25.3332 21.3334C23.4465 21.3334 22.5052 21.3334 21.9198 21.92C21.3332 22.504 21.3332 23.4467 21.3332 25.3334Z" fill="#FE8401"/>
</svg>
