<svg width="32" height="32" viewBox="0 0 32 32" fill="none" xmlns="http://www.w3.org/2000/svg">
<path d="M3.3335 12.6666H28.6668V25.3333H3.3335V12.6666Z" fill="#FFCF91"/>
<path d="M3.3335 25.3334H28.6668V28H3.3335V25.3334Z" fill="#FFA047"/>
<path d="M18 16H26V28H18V16Z" fill="#A55B01"/>
<path d="M6 16H15.3333V23.3333H6V16Z" fill="#FDF0E3"/>
<path d="M6.6665 16.6666H14.6665V22.6666H6.6665V16.6666Z" fill="#E5991E"/>
<path d="M24.3333 22.3334C24.1333 22.3334 24 22.4667 24 22.6667V24C24 24.2 24.1333 24.3334 24.3333 24.3334C24.5333 24.3334 24.6667 24.2 24.6667 24V22.6667C24.6667 22.4667 24.5333 22.3334 24.3333 22.3334Z" fill="white"/>
<path d="M16 14.6666C17.1046 14.6666 18 13.7712 18 12.6666C18 11.5621 17.1046 10.6666 16 10.6666C14.8954 10.6666 14 11.5621 14 12.6666C14 13.7712 14.8954 14.6666 16 14.6666Z" fill="#DB7500"/>
<path d="M24 14.6666C25.1046 14.6666 26 13.7712 26 12.6666C26 11.5621 25.1046 10.6666 24 10.6666C22.8954 10.6666 22 11.5621 22 12.6666C22 13.7712 22.8954 14.6666 24 14.6666Z" fill="#DB7500"/>
<path d="M8 14.6666C9.10457 14.6666 10 13.7712 10 12.6666C10 11.5621 9.10457 10.6666 8 10.6666C6.89543 10.6666 6 11.5621 6 12.6666C6 13.7712 6.89543 14.6666 8 14.6666Z" fill="#DB7500"/>
<path d="M26.6667 4H5.33333C4.6 4 4 4.6 4 5.33333V7.33333H28V5.33333C28 4.6 27.4 4 26.6667 4ZM14 7.33333H18V12.6667H14V7.33333ZM24.6667 7.33333H21.3333L22 12.6667H26L24.6667 7.33333ZM7.33333 7.33333H10.6667L10 12.6667H6L7.33333 7.33333Z" fill="#FF8B25"/>
<path d="M20 14.6666C21.1046 14.6666 22 13.7712 22 12.6666C22 11.5621 21.1046 10.6666 20 10.6666C18.8954 10.6666 18 11.5621 18 12.6666C18 13.7712 18.8954 14.6666 20 14.6666Z" fill="#FFA000"/>
<path d="M30 12.6666C30 13.8 29.1333 14.6666 28 14.6666C26.8667 14.6666 26 13.8 26 12.6666C26 11.5333 26.8667 10.6666 28 10.6666L30 12.6666Z" fill="#FFA000"/>
<path d="M12 14.6666C13.1046 14.6666 14 13.7712 14 12.6666C14 11.5621 13.1046 10.6666 12 10.6666C10.8954 10.6666 10 11.5621 10 12.6666C10 13.7712 10.8954 14.6666 12 14.6666Z" fill="#FFA000"/>
<path d="M2 12.6666C2 13.8 2.86667 14.6666 4 14.6666C5.13333 14.6666 6 13.8 6 12.6666C6 11.5333 5.13333 10.6666 4 10.6666L2 12.6666Z" fill="#FFA000"/>
<path d="M21.3333 7.33337H18V12.6667H22L21.3333 7.33337ZM28 7.33337H24.6667L26 12.6667H30L28 7.33337ZM10.6667 7.33337H14V12.6667H10L10.6667 7.33337ZM4 7.33337H7.33333L6 12.6667H2L4 7.33337Z" fill="#FFC107"/>
</svg>
