<svg width="14" height="14" viewBox="0 0 14 14" fill="none" xmlns="http://www.w3.org/2000/svg">
<path d="M5.46875 11.9001C5.48735 11.9167 5.51085 11.9267 5.53568 11.9287C5.56051 11.9307 5.58531 11.9245 5.60631 11.9111C5.62731 11.8977 5.64335 11.8778 5.652 11.8545C5.66066 11.8311 5.66144 11.8055 5.65425 11.7817L4.18425 6.74286C4.17099 6.69697 4.14397 6.65625 4.10683 6.62621C4.06969 6.59617 4.02423 6.57824 3.97658 6.57486C3.73858 6.55736 3.50097 6.53792 3.26375 6.51653L1.29791 6.33745C1.27713 6.33543 1.25619 6.33908 1.23732 6.34801C1.21844 6.35695 1.20234 6.37083 1.19073 6.38819C1.17912 6.40554 1.17244 6.42572 1.17138 6.44657C1.17033 6.46743 1.17495 6.48818 1.18475 6.50661C2.24816 8.49578 3.77941 10.3916 5.46875 11.9001ZM6.91075 12.9653C6.92241 13.0061 6.95741 13.0364 7 13.0364C7.02065 13.0361 7.04062 13.029 7.05677 13.0161C7.07292 13.0032 7.08434 12.9853 7.08925 12.9653L8.88825 6.7977C8.8936 6.77979 8.89457 6.76086 8.89108 6.7425C8.88759 6.72414 8.87974 6.70689 8.86819 6.6922C8.85664 6.6775 8.84173 6.6658 8.82471 6.65807C8.8077 6.65034 8.78908 6.64681 8.77041 6.64778C7.59067 6.69826 6.40932 6.69826 5.22958 6.64778C5.21098 6.64684 5.19243 6.65037 5.17547 6.65807C5.15852 6.66577 5.14365 6.67741 5.13211 6.69203C5.12058 6.70665 5.11271 6.72382 5.10917 6.7421C5.10562 6.76038 5.10651 6.77924 5.11175 6.79711L6.91075 12.9653ZM8.34575 11.7817C8.31308 11.8925 8.44491 11.9771 8.53125 11.9001C10.2206 10.391 11.7518 8.49578 12.8152 6.50661C12.825 6.48822 12.8296 6.46753 12.8286 6.44674C12.8276 6.42594 12.8209 6.40581 12.8094 6.38847C12.7978 6.37114 12.7818 6.35724 12.763 6.34826C12.7443 6.33928 12.7234 6.33554 12.7027 6.33745L10.7368 6.51653C10.4988 6.53792 10.261 6.55736 10.0234 6.57486C9.97576 6.57824 9.9303 6.59617 9.89316 6.62621C9.85602 6.65625 9.829 6.69697 9.81575 6.74286L8.34575 11.7817ZM12.7172 5.45778C12.7376 5.456 12.7571 5.4489 12.7738 5.43721C12.7906 5.42552 12.804 5.40964 12.8126 5.39116C12.8213 5.37267 12.825 5.35224 12.8233 5.33189C12.8216 5.31154 12.8146 5.29199 12.803 5.2752L10.9142 2.53645C10.8337 2.41981 10.726 2.32447 10.6006 2.25863C10.4751 2.19278 10.3355 2.1584 10.1937 2.15845H8.74125C8.72209 2.15845 8.70323 2.16316 8.68632 2.17218C8.66942 2.1812 8.655 2.19424 8.64433 2.21016C8.63367 2.22607 8.62708 2.24436 8.62516 2.26343C8.62324 2.28249 8.62605 2.30173 8.63333 2.31945L9.94991 5.5412C9.96862 5.58677 10.0013 5.62525 10.0432 5.65114C10.0851 5.67702 10.1341 5.68897 10.1832 5.68528C10.3411 5.67323 10.4992 5.65961 10.6575 5.64445L12.7172 5.45778ZM7.67958 2.30195C7.66182 2.25937 7.63184 2.22302 7.59342 2.19747C7.555 2.17193 7.50988 2.15835 7.46375 2.15845H6.53625C6.49011 2.15835 6.44499 2.17193 6.40657 2.19747C6.36816 2.22302 6.33817 2.25937 6.32041 2.30195L4.94491 5.60245C4.93779 5.61972 4.93492 5.63845 4.93654 5.65706C4.93817 5.67567 4.94423 5.69362 4.95424 5.7094C4.96424 5.72518 4.97789 5.73832 4.99403 5.74773C5.01017 5.75713 5.02834 5.76252 5.047 5.76345C6.34783 5.82645 7.65216 5.82645 8.95358 5.76345C8.97219 5.76243 8.99028 5.75698 9.00635 5.74753C9.02242 5.73809 9.03599 5.72494 9.04593 5.70917C9.05587 5.69341 9.06188 5.67549 9.06348 5.65692C9.06507 5.63835 9.06219 5.61967 9.05508 5.60245L7.67958 2.30195ZM5.36666 2.31945C5.37394 2.30173 5.37675 2.28249 5.37483 2.26343C5.37291 2.24436 5.36632 2.22607 5.35566 2.21016C5.34499 2.19424 5.33057 2.1812 5.31367 2.17218C5.29677 2.16316 5.2779 2.15845 5.25875 2.15845H3.80625C3.66453 2.1584 3.52492 2.19278 3.39943 2.25863C3.27394 2.32447 3.16632 2.41981 3.08583 2.53645L1.197 5.2752C1.18538 5.29199 1.17838 5.31154 1.17668 5.33189C1.17499 5.35224 1.17867 5.37267 1.18735 5.39116C1.19603 5.40964 1.20941 5.42552 1.22615 5.43721C1.24289 5.4489 1.2624 5.456 1.28275 5.45778L3.3425 5.64445C3.50038 5.65961 3.65847 5.67323 3.81675 5.68528C3.86587 5.68897 3.9149 5.67702 3.95681 5.65114C3.99873 5.62525 4.03137 5.58677 4.05008 5.5412L5.36666 2.31945Z" fill="white"/>
</svg>
