<svg width="26" height="26" viewBox="0 0 26 26" fill="none" xmlns="http://www.w3.org/2000/svg">
<path d="M10.1559 22.1C10.1904 22.1307 10.2341 22.1494 10.2802 22.1531C10.3263 22.1568 10.3724 22.1453 10.4114 22.1204C10.4504 22.0955 10.4802 22.0585 10.4962 22.0152C10.5123 21.9718 10.5138 21.9243 10.5004 21.8801L7.7704 12.5222C7.74578 12.437 7.6956 12.3614 7.62663 12.3056C7.55766 12.2498 7.47322 12.2165 7.38473 12.2102C6.94273 12.1777 6.50145 12.1416 6.0609 12.1019L2.41006 11.7693C2.37147 11.7655 2.33258 11.7723 2.29753 11.7889C2.26248 11.8055 2.23258 11.8313 2.21102 11.8635C2.18946 11.8958 2.17704 11.9332 2.17508 11.972C2.17312 12.0107 2.1817 12.0492 2.1999 12.0835C4.17481 15.7776 7.01856 19.2985 10.1559 22.1ZM12.8339 24.0781C12.8556 24.154 12.9206 24.2103 12.9996 24.2103C13.038 24.2097 13.0751 24.1964 13.1051 24.1725C13.1351 24.1486 13.1563 24.1154 13.1654 24.0781L16.5064 12.6241C16.5163 12.5908 16.5181 12.5556 16.5117 12.5215C16.5052 12.4874 16.4906 12.4554 16.4692 12.4281C16.4477 12.4008 16.42 12.3791 16.3884 12.3647C16.3568 12.3504 16.3222 12.3438 16.2876 12.3456C14.0966 12.4394 11.9027 12.4394 9.71173 12.3456C9.67719 12.3439 9.64274 12.3504 9.61125 12.3647C9.57976 12.379 9.55215 12.4007 9.53073 12.4278C9.5093 12.455 9.49469 12.4868 9.48811 12.5208C9.48153 12.5547 9.48317 12.5898 9.4929 12.623L12.8339 24.0781ZM15.4989 21.8801C15.4382 22.0859 15.6831 22.243 15.8434 22.1C18.9807 19.2974 21.8245 15.7776 23.7994 12.0835C23.8175 12.0493 23.8261 12.0109 23.8242 11.9723C23.8223 11.9336 23.8099 11.8963 23.7885 11.8641C23.7671 11.8319 23.7373 11.8061 23.7025 11.7894C23.6676 11.7727 23.6288 11.7658 23.5903 11.7693L19.9395 12.1019C19.4975 12.1416 19.0558 12.1777 18.6146 12.2102C18.5261 12.2165 18.4416 12.2498 18.3727 12.3056C18.3037 12.3614 18.2535 12.437 18.2289 12.5222L15.4989 21.8801ZM23.6174 10.1356C23.6552 10.1323 23.6914 10.1191 23.7225 10.0974C23.7536 10.0757 23.7784 10.0462 23.7946 10.0119C23.8107 9.97758 23.8175 9.93963 23.8144 9.90183C23.8112 9.86404 23.7982 9.82774 23.7766 9.79655L20.2688 4.7103C20.1193 4.49369 19.9195 4.31663 19.6864 4.19435C19.4534 4.07207 19.1941 4.00822 18.9309 4.0083H16.2334C16.1978 4.0083 16.1628 4.01706 16.1314 4.03381C16.1 4.05056 16.0732 4.07478 16.0534 4.10433C16.0336 4.13389 16.0214 4.16786 16.0178 4.20326C16.0143 4.23866 16.0195 4.27439 16.033 4.3073L18.4781 10.2906C18.5128 10.3752 18.5734 10.4467 18.6513 10.4947C18.7291 10.5428 18.8202 10.565 18.9114 10.5581C19.2046 10.5357 19.4982 10.5105 19.7921 10.4823L23.6174 10.1356ZM14.2617 4.2748C14.2287 4.19573 14.1731 4.12821 14.1017 4.08078C14.0304 4.03334 13.9466 4.00812 13.8609 4.0083H12.1384C12.0527 4.00812 11.9689 4.03334 11.8976 4.08078C11.8262 4.12821 11.7705 4.19573 11.7376 4.2748L9.18306 10.4043C9.16984 10.4364 9.16451 10.4712 9.16752 10.5057C9.17054 10.5403 9.18181 10.5736 9.20038 10.6029C9.21896 10.6322 9.24431 10.6566 9.27428 10.6741C9.30426 10.6916 9.338 10.7016 9.37265 10.7033C11.7885 10.8203 14.2108 10.8203 16.6277 10.7033C16.6623 10.7014 16.6959 10.6913 16.7257 10.6737C16.7556 10.6562 16.7808 10.6318 16.7992 10.6025C16.8177 10.5732 16.8289 10.54 16.8318 10.5055C16.8348 10.471 16.8294 10.4363 16.8162 10.4043L14.2617 4.2748ZM9.96631 4.3073C9.97983 4.27439 9.98504 4.23866 9.98148 4.20326C9.97791 4.16786 9.96569 4.13389 9.94588 4.10433C9.92607 4.07478 9.89929 4.05056 9.8679 4.03381C9.83651 4.01706 9.80148 4.0083 9.7659 4.0083H7.0684C6.80521 4.00822 6.54594 4.07207 6.31289 4.19435C6.07984 4.31663 5.87997 4.49369 5.73048 4.7103L2.22265 9.79655C2.20108 9.82774 2.18807 9.86404 2.18493 9.90183C2.18178 9.93963 2.18861 9.97758 2.20473 10.0119C2.22085 10.0462 2.2457 10.0757 2.27679 10.0974C2.30788 10.1191 2.34412 10.1323 2.3819 10.1356L6.20715 10.4823C6.50037 10.5105 6.79395 10.5357 7.0879 10.5581C7.17913 10.565 7.27018 10.5428 7.34802 10.4947C7.42586 10.4467 7.48649 10.3752 7.52123 10.2906L9.96631 4.3073Z" fill="#0283F1"/>
</svg>
