<svg width="26" height="26" viewBox="0 0 26 26" fill="none" xmlns="http://www.w3.org/2000/svg">
<path d="M10.1563 22.1C10.1908 22.1308 10.2345 22.1494 10.2806 22.1531C10.3267 22.1568 10.3727 22.1453 10.4117 22.1204C10.4507 22.0955 10.4805 22.0586 10.4966 22.0152C10.5127 21.9718 10.5141 21.9244 10.5008 21.8801L7.77076 12.5222C7.74615 12.437 7.69596 12.3614 7.62699 12.3056C7.55802 12.2498 7.47359 12.2165 7.3851 12.2102C6.9431 12.1777 6.50182 12.1416 6.06126 12.1019L2.41043 11.7693C2.37183 11.7656 2.33294 11.7724 2.29789 11.789C2.26284 11.8055 2.23295 11.8313 2.21139 11.8636C2.18982 11.8958 2.1774 11.9333 2.17544 11.972C2.17349 12.0107 2.18206 12.0493 2.20026 12.0835C4.17518 15.7777 7.01893 19.2985 10.1563 22.1ZM12.8343 24.0782C12.8559 24.154 12.9209 24.2103 13 24.2103C13.0384 24.2098 13.0755 24.1965 13.1054 24.1725C13.1354 24.1486 13.1567 24.1154 13.1658 24.0782L16.5068 12.6241C16.5167 12.5908 16.5185 12.5557 16.512 12.5216C16.5055 12.4875 16.491 12.4554 16.4695 12.4282C16.4481 12.4009 16.4204 12.3791 16.3888 12.3648C16.3572 12.3504 16.3226 12.3439 16.2879 12.3457C14.097 12.4394 11.903 12.4394 9.7121 12.3457C9.67756 12.3439 9.6431 12.3505 9.61161 12.3648C9.58012 12.3791 9.55251 12.4007 9.53109 12.4278C9.50967 12.455 9.49506 12.4869 9.48848 12.5208C9.48189 12.5548 9.48354 12.5898 9.49326 12.623L12.8343 24.0782ZM15.4993 21.8801C15.4386 22.0859 15.6834 22.243 15.8438 22.1C18.9811 19.2974 21.8248 15.7777 23.7998 12.0835C23.8179 12.0493 23.8265 12.0109 23.8245 11.9723C23.8226 11.9337 23.8103 11.8963 23.7889 11.8641C23.7674 11.8319 23.7377 11.8061 23.7028 11.7894C23.6679 11.7727 23.6292 11.7658 23.5907 11.7693L19.9398 12.1019C19.4978 12.1416 19.0562 12.1777 18.6149 12.2102C18.5264 12.2165 18.442 12.2498 18.373 12.3056C18.3041 12.3614 18.2539 12.437 18.2293 12.5222L15.4993 21.8801ZM23.6178 10.1357C23.6555 10.1323 23.6918 10.1192 23.7229 10.0975C23.754 10.0758 23.7788 10.0463 23.7949 10.0119C23.8111 9.97761 23.8179 9.93966 23.8147 9.90187C23.8116 9.86407 23.7986 9.82777 23.777 9.79658L20.2692 4.71033C20.1197 4.49372 19.9198 4.31666 19.6868 4.19438C19.4537 4.0721 19.1945 4.00825 18.9313 4.00833H16.2338C16.1982 4.00833 16.1632 4.01709 16.1318 4.03384C16.1004 4.05059 16.0736 4.07481 16.0538 4.10436C16.034 4.13392 16.0217 4.16789 16.0182 4.20329C16.0146 4.23869 16.0198 4.27442 16.0333 4.30733L18.4784 10.2906C18.5132 10.3752 18.5738 10.4467 18.6516 10.4948C18.7295 10.5428 18.8205 10.565 18.9118 10.5582C19.205 10.5358 19.4986 10.5105 19.7925 10.4823L23.6178 10.1357ZM14.2621 4.27483C14.2291 4.19576 14.1734 4.12824 14.1021 4.08081C14.0307 4.03338 13.9469 4.00815 13.8613 4.00833H12.1388C12.0531 4.00815 11.9693 4.03338 11.8979 4.08081C11.8266 4.12824 11.7709 4.19576 11.7379 4.27483L9.18343 10.4043C9.1702 10.4364 9.16487 10.4712 9.16789 10.5058C9.1709 10.5403 9.18217 10.5737 9.20075 10.603C9.21933 10.6323 9.24467 10.6567 9.27465 10.6741C9.30463 10.6916 9.33836 10.7016 9.37301 10.7033C11.7888 10.8203 14.2112 10.8203 16.6281 10.7033C16.6627 10.7015 16.6963 10.6913 16.7261 10.6738C16.7559 10.6562 16.7811 10.6318 16.7996 10.6025C16.8181 10.5733 16.8292 10.54 16.8322 10.5055C16.8351 10.471 16.8298 10.4363 16.8166 10.4043L14.2621 4.27483ZM9.96668 4.30733C9.9802 4.27442 9.98541 4.23869 9.98184 4.20329C9.97828 4.16789 9.96605 4.13392 9.94624 4.10436C9.92643 4.07481 9.89965 4.05059 9.86826 4.03384C9.83687 4.01709 9.80184 4.00833 9.76626 4.00833H7.06876C6.80558 4.00825 6.54631 4.0721 6.31326 4.19438C6.0802 4.31666 5.88034 4.49372 5.73085 4.71033L2.22301 9.79658C2.20144 9.82777 2.18844 9.86407 2.18529 9.90187C2.18215 9.93966 2.18898 9.97761 2.2051 10.0119C2.22122 10.0463 2.24606 10.0758 2.27715 10.0975C2.30824 10.1192 2.34449 10.1323 2.38226 10.1357L6.20751 10.4823C6.50074 10.5105 6.79432 10.5358 7.08826 10.5582C7.17949 10.565 7.27055 10.5428 7.34839 10.4948C7.42623 10.4467 7.48686 10.3752 7.5216 10.2906L9.96668 4.30733Z" fill="#FE8401"/>
</svg>
