<svg width="26" height="26" viewBox="0 0 26 26" fill="none" xmlns="http://www.w3.org/2000/svg">
<g clip-path="url(#clip0_3941_1723)">
<path d="M24.8919 9.21174L22.6509 6.97076C22.4701 6.7924 22.229 6.68825 21.9752 6.67885C21.7214 6.66945 21.4733 6.75548 21.2798 6.91998C20.981 7.17426 20.5977 7.30703 20.2057 7.29199C19.8136 7.27694 19.4416 7.11517 19.1632 6.83873C18.8869 6.56039 18.7252 6.18844 18.7102 5.79654C18.6952 5.40464 18.8278 5.02138 19.082 4.72268C19.2465 4.52918 19.3325 4.28106 19.3231 4.02726C19.3137 3.77346 19.2096 3.53239 19.0312 3.35158L16.7882 1.10807C16.5986 0.918878 16.3418 0.812622 16.0739 0.812622C15.8061 0.812622 15.5493 0.918878 15.3597 1.10807L11.7872 4.68002C11.5667 4.90141 11.4004 5.1708 11.3013 5.46713C11.282 5.52411 11.2498 5.57587 11.2073 5.61841C11.1647 5.66095 11.113 5.69311 11.056 5.7124C10.7595 5.81152 10.4901 5.97804 10.2689 6.19889L1.10795 15.3598C0.918756 15.5494 0.8125 15.8063 0.8125 16.0741C0.8125 16.3419 0.918756 16.5987 1.10795 16.7883L3.35146 19.0293C3.53226 19.2076 3.77333 19.3118 4.02714 19.3212C4.28094 19.3306 4.52905 19.2446 4.72256 19.0801C5.02058 18.8237 5.40447 18.6895 5.7973 18.7042C6.19012 18.719 6.56286 18.8816 6.84083 19.1596C7.11879 19.4376 7.28145 19.8103 7.2962 20.2031C7.31095 20.596 7.17671 20.9798 6.92037 21.2779C6.75587 21.4714 6.66983 21.7195 6.67923 21.9733C6.68863 22.2271 6.79278 22.4682 6.97115 22.649L9.21213 24.8899C9.40168 25.0791 9.65855 25.1854 9.92636 25.1854C10.1942 25.1854 10.451 25.0791 10.6406 24.8899L19.8015 15.729C20.0223 15.5079 20.1888 15.2387 20.288 14.9424C20.3072 14.8852 20.3394 14.8333 20.3821 14.7907C20.4247 14.748 20.4766 14.7158 20.5338 14.6966C20.83 14.5975 21.0992 14.4312 21.3204 14.2106L24.8924 10.6382C25.0809 10.4486 25.1866 10.1922 25.1865 9.92486C25.1864 9.65754 25.0805 9.40114 24.8919 9.21174ZM13.2949 7.70608C13.2195 7.78154 13.1299 7.84141 13.0313 7.88225C12.9327 7.92309 12.8271 7.94412 12.7203 7.94412C12.6136 7.94412 12.508 7.92309 12.4094 7.88225C12.3108 7.84141 12.2212 7.78154 12.1458 7.70608L11.5613 7.12158C11.4126 6.96844 11.3302 6.76296 11.3318 6.54953C11.3334 6.3361 11.4189 6.13188 11.5699 5.981C11.7208 5.83011 11.9251 5.74468 12.1385 5.74317C12.3519 5.74165 12.5574 5.82418 12.7104 5.97291L13.2949 6.5569C13.3704 6.63235 13.4303 6.72192 13.4711 6.82051C13.512 6.9191 13.533 7.02477 13.533 7.13149C13.533 7.2382 13.512 7.34387 13.4711 7.44246C13.4303 7.54105 13.3704 7.63063 13.2949 7.70608ZM15.5293 9.94045C15.377 10.0927 15.1704 10.1782 14.955 10.1782C14.7396 10.1782 14.533 10.0927 14.3806 9.94045L13.822 9.38186C13.6697 9.22947 13.584 9.02278 13.584 8.80727C13.584 8.59175 13.6697 8.38507 13.822 8.23268C13.9744 8.08029 14.1811 7.99467 14.3966 7.99467C14.6122 7.99467 14.8188 8.08029 14.9712 8.23268L15.5298 8.79127C15.6056 8.86672 15.6656 8.95636 15.7067 9.05507C15.7477 9.15379 15.7688 9.25962 15.7689 9.36652C15.7689 9.47341 15.7479 9.57927 15.7069 9.67802C15.666 9.77676 15.606 9.86646 15.5303 9.94197L15.5293 9.94045ZM17.7637 12.1748C17.6882 12.2503 17.5987 12.3102 17.5001 12.351C17.4015 12.3918 17.2958 12.4129 17.1891 12.4129C17.0824 12.4129 16.9767 12.3918 16.8781 12.351C16.7795 12.3102 16.69 12.2503 16.6145 12.1748L16.0559 11.6162C15.9073 11.4631 15.8248 11.2576 15.8264 11.0442C15.828 10.8308 15.9135 10.6265 16.0645 10.4756C16.2155 10.3248 16.4197 10.2393 16.6331 10.2378C16.8466 10.2363 17.052 10.3188 17.2051 10.4676L17.7637 11.0262C17.8396 11.1015 17.8999 11.191 17.9412 11.2897C17.9824 11.3884 18.0038 11.4943 18.004 11.6012C18.0043 11.7082 17.9834 11.8141 17.9426 11.913C17.9018 12.0119 17.8418 12.1017 17.7662 12.1774L17.7637 12.1748ZM20.0199 14.4366C19.9444 14.5121 19.8549 14.572 19.7563 14.6128C19.6577 14.6536 19.552 14.6747 19.4453 14.6747C19.3386 14.6747 19.2329 14.6536 19.1343 14.6128C19.0357 14.572 18.9462 14.5121 18.8707 14.4366L18.2898 13.8526C18.2127 13.7774 18.1514 13.6876 18.1094 13.5885C18.0673 13.4893 18.0454 13.3828 18.0449 13.2752C18.0444 13.1675 18.0653 13.0608 18.1064 12.9612C18.1475 12.8617 18.2079 12.7713 18.2843 12.6954C18.3606 12.6194 18.4513 12.5594 18.551 12.5188C18.6507 12.4781 18.7575 12.4578 18.8652 12.4588C18.9729 12.4598 19.0793 12.4823 19.1782 12.5248C19.2772 12.5673 19.3666 12.6291 19.4415 12.7065L20.0229 13.29C20.0984 13.3655 20.1582 13.4551 20.199 13.5537C20.2398 13.6523 20.2608 13.758 20.2607 13.8647C20.2607 13.9714 20.2396 14.0771 20.1987 14.1756C20.1578 14.2742 20.0979 14.3637 20.0224 14.4392L20.0199 14.4366Z" fill="#FE8401"/>
</g>
<defs>
<clipPath id="clip0_3941_1723">
<rect width="26" height="26" fill="white"/>
</clipPath>
</defs>
</svg>
