<svg width="26" height="26" viewBox="0 0 26 26" fill="none" xmlns="http://www.w3.org/2000/svg">
<g clip-path="url(#clip0_1939_1642)">
<path d="M12.9999 26C19.7808 26 25.2777 20.5031 25.2777 13.7222C25.2777 6.94141 19.7808 1.44446 12.9999 1.44446C6.21912 1.44446 0.722168 6.94141 0.722168 13.7222C0.722168 20.5031 6.21912 26 12.9999 26Z" fill="#F4900C"/>
<path d="M12.9999 24.5556C19.7808 24.5556 25.2777 19.0586 25.2777 12.2778C25.2777 5.49695 19.7808 0 12.9999 0C6.21912 0 0.722168 5.49695 0.722168 12.2778C0.722168 19.0586 6.21912 24.5556 12.9999 24.5556Z" fill="#FFCC4D"/>
<path d="M13 23.1111C18.5842 23.1111 23.1111 18.5842 23.1111 13C23.1111 7.41581 18.5842 2.88892 13 2.88892C7.41581 2.88892 2.88892 7.41581 2.88892 13C2.88892 18.5842 7.41581 23.1111 13 23.1111Z" fill="#FFE8B6"/>
<path d="M13 22.3888C18.5842 22.3888 23.1111 17.8619 23.1111 12.2777C23.1111 6.69352 18.5842 2.16663 13 2.16663C7.41581 2.16663 2.88892 6.69352 2.88892 12.2777C2.88892 17.8619 7.41581 22.3888 13 22.3888Z" fill="#FFAC33"/>
<path d="M6.89209 7.84047C6.89209 7.44685 7.27848 7.28941 7.27848 7.28941L12.9681 4.61719L18.712 7.28941C18.712 7.28941 19.1078 7.37752 19.1078 7.84335V8.3063H6.89209V7.84047Z" fill="#FFE8B6"/>
<path d="M18.7264 9.27047C18.7264 8.84869 18.3617 8.50708 17.9124 8.50708H8.0375C7.58755 8.50708 7.27411 8.84869 7.27411 9.27047C7.27411 9.55719 7.42144 9.80419 7.65616 9.93491V10.4159H9.18294V10.0339H10.7097V10.4159H12.2365V10.0339H13.7633V10.4159H15.2901V10.0339H16.8168V10.4159H18.3443V9.91541C18.5733 9.77964 18.7264 9.54202 18.7264 9.27047ZM19.8711 17.3334C19.8711 17.4853 19.8108 17.6309 19.7034 17.7383C19.596 17.8457 19.4503 17.9061 19.2984 17.9061H6.70138C6.54949 17.9061 6.40381 17.8457 6.29641 17.7383C6.189 17.6309 6.12866 17.4853 6.12866 17.3334C6.12866 17.1815 6.189 17.0358 6.29641 16.9284C6.40381 16.821 6.54949 16.7606 6.70138 16.7606H19.2991C19.6147 16.7606 19.8711 17.017 19.8711 17.3334Z" fill="#F4900C"/>
<path d="M19.1079 8.81113C19.1077 8.9124 19.0674 9.00947 18.9958 9.08108C18.9242 9.15268 18.8271 9.193 18.7259 9.19319H7.27358C7.17631 9.18721 7.08499 9.14435 7.01823 9.07336C6.95147 9.00236 6.91431 8.90858 6.91431 8.81113C6.91431 8.71368 6.95147 8.6199 7.01823 8.54891C7.08499 8.47792 7.17631 8.43506 7.27358 8.42908L18.7259 8.43124C18.7759 8.43105 18.8255 8.44073 18.8718 8.45973C18.9181 8.47873 18.9602 8.50667 18.9957 8.54196C19.0312 8.57724 19.0593 8.61918 19.0786 8.66537C19.0979 8.71156 19.1078 8.76109 19.1079 8.81113ZM8.80108 9.25458H17.1998V10.1111H8.80108V9.25458Z" fill="#F4900C"/>
<path d="M9.18228 15.0432C9.18228 15.465 8.95406 15.8066 8.67312 15.8066H8.16395C7.88301 15.8066 7.65479 15.465 7.65479 15.0432V9.25533C7.65479 8.83355 7.88301 8.49194 8.16395 8.49194H8.67312C8.95406 8.49194 9.18228 8.83355 9.18228 9.25533V15.0432ZM18.3444 15.0432C18.3444 15.465 18.1169 15.8066 17.8352 15.8066H17.3261C17.0451 15.8066 16.8169 15.465 16.8169 15.0432V9.25533C16.8169 8.83355 17.0444 8.49194 17.3261 8.49194H17.8352C18.1162 8.49194 18.3444 8.83355 18.3444 9.25533V15.0432ZM12.2366 15.0432C12.2366 15.465 12.0083 15.8066 11.7274 15.8066H11.2182C10.9373 15.8066 10.7091 15.465 10.7091 15.0432V9.25533C10.7091 8.83355 10.9373 8.49194 11.2182 8.49194H11.7274C12.0083 8.49194 12.2366 8.83355 12.2366 9.25533V15.0432ZM15.2901 15.0432C15.2901 15.465 15.0619 15.8066 14.781 15.8066H14.2725C13.9916 15.8066 13.7633 15.465 13.7633 15.0432V9.25533C13.7633 8.83355 13.9916 8.49194 14.2725 8.49194H14.781C15.0619 8.49194 15.2901 8.83355 15.2901 9.25533V15.0432Z" fill="#FFD983"/>
<path d="M18.7264 15.4245C18.7264 15.8463 18.3848 16.1879 17.9631 16.1879H8.03756C7.8351 16.1879 7.64092 16.1075 7.49776 15.9643C7.3546 15.8212 7.27417 15.627 7.27417 15.4245C7.27417 15.2221 7.3546 15.0279 7.49776 14.8847C7.64092 14.7416 7.8351 14.6611 8.03756 14.6611H17.9631C18.3841 14.6611 18.7264 15.0027 18.7264 15.4245Z" fill="#FFCC4D"/>
<path d="M19.4898 16.1879C19.4898 16.6097 19.1482 16.9513 18.7264 16.9513H7.2734C7.07094 16.9513 6.87676 16.8709 6.7336 16.7277C6.59044 16.5846 6.51001 16.3904 6.51001 16.1879C6.51001 15.9855 6.59044 15.7913 6.7336 15.6482C6.87676 15.505 7.07094 15.4246 7.2734 15.4246H18.7257C19.1475 15.4246 19.4898 15.7662 19.4898 16.1879Z" fill="#FFD983"/>
<path d="M19.8711 16.7606C19.8711 16.9125 19.8108 17.0582 19.7034 17.1656C19.596 17.273 19.4503 17.3333 19.2984 17.3333H6.70138C6.62617 17.3333 6.5517 17.3185 6.48221 17.2897C6.41273 17.2609 6.34959 17.2187 6.29641 17.1656C6.24323 17.1124 6.20104 17.0492 6.17226 16.9798C6.14348 16.9103 6.12866 16.8358 6.12866 16.7606C6.12866 16.6854 6.14348 16.6109 6.17226 16.5414C6.20104 16.4719 6.24323 16.4088 6.29641 16.3556C6.34959 16.3024 6.41273 16.2602 6.48221 16.2315C6.5517 16.2027 6.62617 16.1879 6.70138 16.1879H19.2991C19.6147 16.1879 19.8711 16.4443 19.8711 16.7606Z" fill="#FFD983"/>
<path d="M18.7264 8.87325C18.7264 8.45147 18.3617 8.10986 17.9125 8.10986H8.03756C7.58761 8.10986 7.27417 8.45147 7.27417 8.87325C7.27417 9.15997 7.4215 9.40697 7.65623 9.5377V10.0187H9.183V9.63664H10.7098V10.0187H12.2366V9.63664H13.7633V10.0187H15.2901V9.63664H16.8169V10.0187H18.3444V9.5182C18.5733 9.38242 18.7264 9.14481 18.7264 8.87325Z" fill="#FFCC4D"/>
<path d="M6.89209 8.27882C6.89209 7.88521 7.27848 7.72776 7.27848 7.72776L12.9681 5.05554L18.712 7.72776C18.712 7.72776 19.1078 7.81588 19.1078 8.28171V8.49188H6.89209V8.27882Z" fill="#FFD983"/>
<path d="M13.0001 6.02551C13.0001 6.02551 9.06035 7.88235 8.66746 8.0499C8.27385 8.21673 8.4053 8.49118 8.66818 8.49118H17.3132C17.7191 8.49118 17.623 8.18135 17.3009 8.01379C16.9788 7.84696 13.0001 6.02551 13.0001 6.02551Z" fill="#FFAC33"/>
<path d="M19.1079 8.49119C19.1077 8.59246 19.0674 8.68952 18.9958 8.76113C18.9242 8.83274 18.8271 8.87305 18.7259 8.87324H7.27358C7.17631 8.86726 7.08499 8.8244 7.01823 8.75341C6.95147 8.68242 6.91431 8.58864 6.91431 8.49119C6.91431 8.39374 6.95147 8.29995 7.01823 8.22896C7.08499 8.15797 7.17631 8.11511 7.27358 8.10913L18.7259 8.1113C18.7759 8.11111 18.8255 8.12079 18.8718 8.13979C18.9181 8.15878 18.9602 8.18672 18.9957 8.22201C19.0312 8.25729 19.0593 8.29923 19.0786 8.34542C19.0979 8.39161 19.1078 8.44114 19.1079 8.49119Z" fill="#FFD983"/>
</g>
<defs>
<clipPath id="clip0_1939_1642">
<rect width="26" height="26" fill="white"/>
</clipPath>
</defs>
</svg>
