<svg width="4703" height="5600" viewBox="0 0 4703 5600" fill="none" xmlns="http://www.w3.org/2000/svg">
<path d="M879.519 1657.35L3962.02 1094.35L4165.52 1724.85L4088.02 4265.85L3826.02 4575.85L3302.52 4740.85L1159.02 4575.85L879.519 4333.85V3611.35V1657.35Z" fill="#FFF7E7"/>
<path d="M179.019 2984.35H332.519V3687.35L265.019 3717.85L80.5186 3570.35L27.5186 3249.85L179.019 2984.35Z" fill="#FFF7E7"/>
<path d="M1246.02 425.347L1382.02 37.3467H1595.52L2119.02 492.847L3903.52 628.847L3952.02 1375.85L858.519 1889.85L939.019 1459.85L1074.02 1160.85L1146.52 1036.35L1165.52 844.347L1246.02 425.347Z" fill="#FFF7E7"/>
<path d="M4111.52 2649.35L4355.52 2875.35L4511.02 3150.85L4390.01 3293.55L4355.52 3352.35L4136.52 3458.35L3873.52 3483.85L3826.02 3403.35V3019.85L3939.52 2649.35L3987.01 2637.55L4111.52 2649.35Z" fill="#D69165"/>
<path d="M3688.02 58.3467L3799.02 135.847L3877.52 304.847L3945.52 760.847V981.847L4035.02 1292.35L3877.52 1359.35L3531.52 1386.85L3000.52 1331.85L2611.02 1091.85L2453.52 839.847L2517.52 485.347L2949.52 552.847L3350.52 202.847L3688.02 58.3467Z" fill="#D69165"/>
<path d="M3212.04 4789.8L3778.52 4836.8L3682.02 5287.85L3524.43 5493.22L3244.05 5599.28L2890.02 5493.22L2734.02 5370.85L2590.52 5041.35L2991.83 4789.8H3212.04Z" fill="#D69165"/>
<path d="M1789.04 4699.35L2355.52 4746.35L2259.02 5197.39L2101.43 5402.77L1821.05 5508.83L1467.02 5402.77L1320.02 5240.85L1273.02 4882.35L1568.83 4699.35H1789.04Z" fill="#D69165"/>
<path d="M4079.02 4033.85L4346.02 3988.35L4501.52 4263.85L4346.02 4465.35H4265.52L4079.02 4495.35L3956.02 4465.35L4079.02 4263.85V4126.85V4033.85Z" fill="#D69165"/>
<path d="M4279.52 3953.35H4589.02L4665.52 4043.85V4165.35L4562.52 4327.35L4441.02 4370.85L4279.52 3953.35Z" fill="#FFF7E7"/>
<path d="M2575.52 4492.35H3787.52L3759.52 5052.35L3573.52 5080.99L3395.02 5061.03L3063.02 4966.85L2930.02 4956.85L2716.52 5032.35L2615.02 5071.35L2575.52 4975.74V4492.35Z" fill="#FFF7E7"/>
<path d="M1233.52 4435.35H2445.52L2265.52 5091.35H2008.02L1610.02 4918.74L1361.52 4845.35L1233.52 4918.74V4435.35Z" fill="#FFF7E7"/>
<rect x="3873.2" y="3503.51" width="595.089" height="233.093" transform="rotate(-10.962 3873.2 3503.51)" fill="#FFF7E7"/>
<rect x="3945.52" y="3555.51" width="595.089" height="233.093" transform="rotate(-10.962 3945.52 3555.51)" fill="#FFF7E7"/>
<rect x="4040.17" y="3657.15" width="438.64" height="170.154" transform="rotate(-10.962 4040.17 3657.15)" fill="#FFF7E7"/>
<rect x="3998.52" y="3657.76" width="438.64" height="170.154" transform="rotate(-10.962 3998.52 3657.76)" fill="#FFF7E7"/>
<rect x="4097.52" y="3819" width="426.832" height="78.0675" transform="rotate(-22.4001 4097.52 3819)" fill="#FFF7E7"/>
<rect x="4295.52" y="3369.35" width="262.475" height="109.754" transform="rotate(-10.962 4295.52 3369.35)" fill="#FFF7E7"/>
<rect x="4321.52" y="3453.26" width="248.982" height="181.751" transform="rotate(-10.962 4321.52 3453.26)" fill="#FFF7E7"/>
<rect x="4452.7" y="3215.8" width="99.5244" height="124.491" transform="rotate(-10.962 4452.7 3215.8)" fill="#FFF7E7"/>
<rect x="4377.51" y="3287.47" width="99.5244" height="124.491" transform="rotate(-10.962 4377.51 3287.47)" fill="#FFF7E7"/>
<path d="M3034.02 2795.35V3002.85M2573.52 2766.35L2551.77 3641.35M2530.02 4366.35L2550.52 3691.85L2551.77 3641.35M2121.02 2749.85L2108.52 3083.85M1637.52 2724.85L1617.08 3587.85M1600.02 4308.35L1617.08 3587.85M2949.02 3131.35L1363.52 3042.35M3106.52 3139.85L3399.52 3153.85M1179.02 3958.85L3368.52 4088.85L3362.52 4287.85C3343.09 4362.01 3317.49 4389.56 3238.52 4406.85L2995.02 4392.4M1617.08 3587.85L2084.43 3614.6M1617.08 3587.85L1402.52 3578.35M2551.77 3641.35L2084.43 3614.6M2551.77 3641.35L2792.52 3651.35M2084.43 3614.6L2069.52 4337.48M2069.52 4337.48L1283.52 4290.85C1221.09 4282.92 1194.85 4261.22 1167.52 4183.85L1179.02 3893.85M2069.52 4337.48L2995.02 4392.4M2995.02 3965.85V4392.4M3215.02 3666.85L3380.52 3681.85" stroke="#D6C8AB" stroke-width="27" stroke-linecap="round"/>
<path d="M3245.52 2322.35L1318.52 2228.85C1212.35 2254.1 1166.04 2286.67 1131.52 2411.85V2562.85C1181.91 2644.02 1212.54 2683.55 1285.02 2709.35L3038.02 2799.21L3245.52 2809.85C3341.02 2809.85 3443.72 2741.35 3447.02 2579.35C3449.92 2437.06 3385.02 2335.35 3245.52 2322.35Z" fill="#E24732" stroke="#A52B1A" stroke-width="54" stroke-linecap="round"/>
<path d="M1354.48 2541.5L1323.61 2408.25L1353.36 2409.77L1370.82 2502.69L1371.91 2502.74L1400.71 2412.18L1426.29 2413.48L1445.74 2506.68L1446.82 2506.74L1473.64 2415.89L1503.39 2417.4L1459.15 2546.83L1432.49 2545.47L1411.86 2457.49L1410.78 2457.43L1381.15 2542.86L1354.48 2541.5ZM1510.67 2549.45L1517.36 2418.11L1605.52 2422.6L1604.37 2445.1L1543.42 2441.99L1541.8 2473.92L1598.21 2476.79L1597.07 2499.29L1540.65 2496.42L1539.03 2528.34L1600.16 2531.45L1599.02 2553.95L1510.67 2549.45ZM1620.06 2555.02L1626.74 2423.68L1714.91 2428.17L1713.76 2450.66L1652.81 2447.56L1651.18 2479.49L1707.6 2482.36L1706.46 2504.85L1650.04 2501.98L1648.41 2533.91L1709.55 2537.02L1708.4 2559.52L1620.06 2555.02ZM1729.45 2560.59L1736.13 2429.25L1763.34 2430.63L1760.38 2488.86L1762.19 2488.96L1812.87 2433.15L1845.7 2434.83L1793.73 2491.11L1839.56 2566.19L1806.91 2564.53L1773.2 2508.43L1758.57 2524.42L1756.66 2561.97L1729.45 2560.59ZM1852.62 2566.86L1859.31 2435.52L1886.52 2436.9L1880.98 2545.75L1937.58 2548.63L1936.43 2571.12L1852.62 2566.86ZM1936.4 2439.44L1967.06 2441L1994.47 2499.14L1995.74 2499.21L2028.74 2444.14L2059.4 2445.7L2007.2 2527.8L2004.82 2574.6L1977.61 2573.22L1979.99 2526.41L1936.4 2439.44ZM2109.67 2579.94L2116.36 2448.6L2143.57 2449.99L2140.8 2504.41L2197.76 2507.31L2200.53 2452.88L2227.92 2454.28L2221.24 2585.62L2193.85 2584.22L2196.62 2529.8L2139.65 2526.9L2136.88 2581.32L2109.67 2579.94ZM2366.98 2527.19C2364.8 2570.01 2336.88 2593.32 2302.23 2591.56C2267.22 2589.78 2242 2563.57 2244.17 2520.94C2246.35 2478.13 2274.09 2454.81 2309.1 2456.59C2343.75 2458.35 2369.16 2484.38 2366.98 2527.19ZM2339.23 2525.78C2340.66 2497.66 2328.19 2481.75 2307.87 2480.72C2287.56 2479.68 2273.36 2494.24 2271.93 2522.36C2270.5 2550.47 2283.14 2566.4 2303.46 2567.43C2323.78 2568.46 2337.8 2553.9 2339.23 2525.78ZM2383.23 2593.86L2389.92 2462.52L2417.13 2463.91L2411.59 2572.75L2468.19 2575.63L2467.04 2598.13L2383.23 2593.86ZM2518.53 2469.07L2511.85 2600.41L2484.64 2599.02L2491.32 2467.68L2518.53 2469.07ZM2580.24 2603.89L2533.98 2601.53L2540.67 2470.2L2587.47 2472.58C2627.01 2474.59 2649.89 2500.49 2647.81 2541.31C2645.71 2582.48 2620.33 2605.93 2580.24 2603.89ZM2562.38 2579.52L2580.34 2580.43C2605.38 2581.7 2619.1 2569.31 2620.6 2539.92C2622.08 2510.71 2609.68 2497.17 2584.83 2495.9L2566.69 2494.98L2562.38 2579.52ZM2654.95 2476.01L2685.61 2477.57L2713.02 2535.71L2714.29 2535.78L2747.29 2480.71L2777.94 2482.27L2725.75 2564.37L2723.37 2611.17L2696.16 2609.79L2698.54 2562.98L2654.95 2476.01ZM2793.94 2614.76L2764.55 2613.27L2816.77 2484.25L2851.78 2486.03L2890.44 2619.67L2861.24 2618.19L2852.98 2587.4L2805.46 2584.98L2793.94 2614.76ZM2813.43 2564.1L2847.17 2565.82L2833.22 2514.73L2832.31 2514.68L2813.43 2564.1ZM2948.13 2622.61L2954.82 2491.27L3006.33 2493.9C3036.27 2495.42 3052.39 2514.61 3051.07 2540.55C3049.73 2566.85 3031.4 2583.93 3001.1 2582.38L2977.52 2581.18L2975.34 2624L2948.13 2622.61ZM2978.64 2559.23L2997.87 2560.21C3014.01 2561.03 3022.27 2552.36 3022.95 2539.12C3023.61 2526.06 3016.26 2516.77 3000.12 2515.95L2980.89 2514.97L2978.64 2559.23ZM3070.58 2628.84L3041.19 2627.35L3093.41 2498.33L3128.42 2500.11L3167.09 2633.75L3137.88 2632.27L3129.63 2601.47L3082.1 2599.06L3070.58 2628.84ZM3090.07 2578.18L3123.81 2579.9L3109.86 2528.81L3108.96 2528.76L3090.07 2578.18ZM3167.24 2502.08L3197.9 2503.64L3225.31 2561.79L3226.58 2561.85L3259.58 2506.78L3290.23 2508.34L3238.04 2590.44L3235.66 2637.24L3208.45 2635.86L3210.83 2589.06L3167.24 2502.08Z" fill="#FFFFFE"/>
<path d="M1090.26 2531.32L1171.04 2634.05L1211.52 2898.92L1211.57 2899.24L1211.88 2899.33L1322.54 2932.23L1387.5 3783.08L1211.85 3893.86L763.067 3931.84L490.256 3853.39L350.002 3739.59L300.008 3039.01L299.998 3038.88L299.922 3038.77L255.432 2973.56L255.401 2973.52L255.363 2973.48L182.029 2903.64L198.499 2582.73L563.062 2480.85L1090.26 2531.32Z" fill="url(#paint0_linear_1015_121)" stroke="url(#paint1_linear_1015_121)"/>
<path d="M983.519 3128.85C1125.02 3108.85 1251.45 3057.08 1183.52 2983.85" stroke="url(#paint2_linear_1015_121)" stroke-width="34" stroke-linecap="round"/>
<path d="M713.019 2595.85L709.019 2624.35M648.019 2724.35L641.519 2758.85" stroke="url(#paint3_linear_1015_121)" stroke-width="25" stroke-linecap="round"/>
<path d="M1057.52 2677.84C1024.02 2601.84 908.529 2574.67 702.019 2561.84C474.546 2561.11 310.019 2615.85 310.019 2675.84C372.142 2794.21 508.312 2774.08 683.019 2796.34C848.019 2800.34 1057.73 2742.88 1057.52 2677.84Z" stroke="url(#paint4_linear_1015_121)" stroke-width="35"/>
<path d="M770.518 2641.35C722.802 2627.83 673.018 2617.85 633.518 2627.85C598.559 2642.37 601.554 2647.6 625.519 2663.85C668.519 2675.85 800.019 2702.85 739.019 2702.85C801.019 2702.85 670.519 2756.35 577.519 2710.35" stroke="url(#paint5_linear_1015_121)" stroke-width="25" stroke-linecap="round"/>
<path d="M848.019 3932.85C1196.74 3914.13 1340.37 3883.76 1387.02 3749.35V3554.35M1341.02 3441.85C1361.11 3450.94 1371.45 3462.05 1387.02 3499.35V3554.35M1387.02 3554.35C1352.38 3591.93 1311.02 3635.85 1341.02 3604.35" stroke="url(#paint6_linear_1015_121)" stroke-width="57"/>
<path d="M845.018 3718.85C618.051 3710.92 519.669 3685.14 400.518 3598.35C351.476 3534.9 304.857 3486.4 318.518 3465.35" stroke="url(#paint7_linear_1015_121)" stroke-width="57"/>
<path d="M355.019 3515.35V3723.85" stroke="url(#paint8_linear_1015_121)" stroke-width="57"/>
<path d="M1334.02 3469.35C1301.02 3655.85 576.519 3754.85 308.519 3469.35C839.685 3923.88 1307.02 3643.85 1365.02 3594.85" stroke="url(#paint9_linear_1015_121)" stroke-width="57"/>
<path d="M315.519 3305.35V3489.85" stroke="url(#paint10_linear_1015_121)" stroke-width="57"/>
<path d="M1338.52 3294.35V3478.85" stroke="url(#paint11_linear_1015_121)" stroke-width="57"/>
<path d="M323.519 3035.35V3294.85V3338.35" stroke="url(#paint12_linear_1015_121)" stroke-width="57"/>
<path d="M1347.52 3008.35L1339.81 3262.71L1338.52 3305.35" stroke="url(#paint13_linear_1015_121)" stroke-width="57"/>
<path d="M332.019 3294.35C563.019 3466.85 1081.02 3469.35 1330.52 3294.35" stroke="url(#paint14_linear_1015_121)" stroke-width="69"/>
<path d="M843.019 2480.35C1025.73 2507.89 1188.87 2571.85 1191.43 2659.85M172.519 2718.85C411.019 2907.35 933.019 2908.85 1150.02 2741.85C1179.5 2712.71 1192.17 2685.27 1191.43 2659.85M1188.52 2878.35C1150.02 3097.85 490.019 3139.85 220.519 2956.85C645.511 3335.32 1196.52 3215.85 1346.52 3040.85C1356.08 2963.16 1304.05 2931.07 1188.52 2878.35ZM1188.52 2878.35L1191.43 2659.85" stroke="url(#paint15_linear_1015_121)" stroke-width="55"/>
<path d="M2369.51 1631.85C2361.06 1672.64 2348.32 1688.69 2314.01 1707.35C2310.14 1768.15 2369.51 1788.85 2435.52 1795.85C2502.57 1787.32 2516.51 1761.92 2525.02 1702.35C2525.02 1672.85 2587.52 1683.35 2587.52 1702.35V1722.35C2587.52 1788.85 2530.55 1852.51 2475.52 1856.85H2396.52C2338.52 1856.85 2306.07 1827.93 2279.02 1788.85H2275.02C2248.23 1819.42 2229.46 1829.23 2192.52 1839.85H2111.51C2026.02 1839.85 1990.58 1749.66 1991.01 1656.35C1991.01 1637.85 2054.51 1639.35 2054.51 1656.35V1707.35C2078.51 1792.35 2228.01 1800.85 2250.01 1702.35C2217.41 1677.79 2209.22 1661.4 2208.51 1626.35C2209.22 1606.43 2217.95 1597.78 2250.01 1587.35H2310.01C2364.35 1597.36 2373.14 1608.1 2369.51 1631.85Z" fill="black" stroke="black" stroke-width="12"/>
<g filter="url(#filter0_d_1015_121)">
<ellipse cx="3187.02" cy="1855.85" rx="131.5" ry="99.5" fill="#F98978"/>
</g>
<g filter="url(#filter1_d_1015_121)">
<ellipse cx="1387.02" cy="1756.85" rx="131.5" ry="99.5" fill="#F98978"/>
</g>
<ellipse cx="2911.52" cy="1565.35" rx="169" ry="252" fill="#522912"/>
<path d="M3042.02 1561.35C2984.09 1511.3 2956.59 1473.33 2916.52 1386.35C2876.7 1470.77 2846.71 1508.92 2780.52 1561.35C2837.89 1609.12 2860.5 1648.05 2909.52 1744.35C2930.82 1667.98 2964.98 1629.8 3042.02 1561.35Z" fill="#FFDB3B" stroke="#985530" stroke-width="12"/>
<ellipse cx="1667.02" cy="1492.35" rx="164.5" ry="252" fill="#522912"/>
<path d="M1794.52 1488.35C1738.03 1438.3 1711.22 1400.33 1672.14 1313.35C1633.31 1397.77 1604.06 1435.92 1539.52 1488.35C1595.47 1536.12 1617.51 1575.05 1665.31 1671.35C1686.08 1594.98 1719.39 1556.8 1794.52 1488.35Z" fill="#FFDB3B" stroke="#985530" stroke-width="12"/>
<g filter="url(#filter2_d_1015_121)">
<path d="M1225.52 1393.85L888.519 1261.85M1177.02 1756.85L826.019 1852.35M1177.02 1581.35L855.519 1565.85M3824.52 1522.35L3484.02 1600.85M3836.02 1857.35L3491.02 1807.35M3785.52 2120.35L3481.02 1990.85" stroke="black" stroke-width="66" stroke-linecap="round"/>
</g>
<path d="M4104.52 4032.34C4174.91 4038.59 4210.34 4011.26 4266.52 3981.19M4415.02 4405.35C4642.23 4267.55 4699.51 4187.55 4665.02 4056.85C4630.02 3962.35 4555.24 3902.67 4377.02 3936.84C4329.69 3949.57 4295.37 3965.74 4266.52 3981.19M4415.02 4405.35C4255.02 4485.85 4067.52 4525.35 3941.02 4464.85M4415.02 4405.35C4429.08 4217.37 4395.31 4124.85 4266.52 3981.19M3794.52 4592.85C3794.52 4735.63 3786.2 4883.57 3759.86 5019.85M2573.02 4669.35C2569.01 4841.52 2583.32 4982.89 2612.19 5098.35M2349.52 4653.35C2343.94 4799.29 2323.56 4936.86 2286.26 5056.35M1234.52 4564.85C1231.87 4675.31 1234.36 4780.61 1244.62 4877.85M1244.62 4877.85C1280.91 5221.62 1414.42 5464.59 1762.02 5478.35C2036.22 5498.91 2203.2 5322.48 2286.26 5056.35M1244.62 4877.85C1449.4 4841.25 1563.19 4860.08 1764.02 4974.85C2031.27 5115.19 2155.97 5150.77 2286.26 5056.35M2612.19 5098.35C2700.11 5450.05 2923.07 5561.35 3174.52 5570.85C3543.5 5584.78 3699.3 5333.1 3759.86 5019.85M2612.19 5098.35C2818.58 4967.04 2946.09 4930.45 3219.02 5007.35C3479.02 5086.22 3629.43 5137.46 3759.86 5019.85M4529.02 3146.35C4324.62 3420.26 4185.41 3515.94 3854.02 3485.85M3854.02 3485.85C3793.52 3171.85 3833.03 2641.77 4003.02 2617.85C4059.52 2624.72 4089.58 2635.62 4140.02 2668.85M3854.02 3485.85C3878.98 3691.71 3940.44 3768.55 4119.52 3849.35M2530.52 504.347C2210.02 992.847 2964.52 1627.85 4055.52 1302.35" stroke="black" stroke-width="55"/>
<path d="M4415.02 4405.35C4429.08 4217.37 4395.31 4124.85 4266.52 3981.19M2612.19 5098.35C2818.58 4967.04 2946.09 4930.45 3219.02 5007.35C3479.02 5086.22 3629.43 5137.46 3759.86 5019.85M2530.52 504.347C2210.02 992.847 2964.52 1627.85 4055.52 1302.35" stroke="#C27A4C" stroke-width="55"/>
<path d="M1244.51 4878.05C1449.29 4841.45 1563.07 4860.28 1763.9 4975.05C2031.15 5115.39 2155.85 5150.97 2286.15 5056.55M4528.9 3146.55C4324.51 3420.46 4185.29 3516.14 3853.9 3486.05C3793.4 3172.05 3832.91 2641.97 4002.9 2618.05C4059.41 2624.92 4089.46 2635.82 4139.9 2669.05" stroke="#C27A4C" stroke-width="55"/>
<path d="M4104.52 4032.34C4174.91 4038.59 4210.35 4011.26 4266.52 3981.19C4295.37 3965.74 4329.69 3949.57 4377.02 3936.84C4555.24 3902.67 4631.01 3961.05 4666.01 4055.55C4701.01 4187.55 4642.23 4267.55 4415.02 4405.35C4255.02 4485.85 4067.52 4525.35 3941.02 4464.85M3794.52 4592.85C3794.52 4735.63 3786.2 4883.57 3759.86 5019.85C3699.3 5333.1 3543.5 5584.78 3174.52 5570.85C2923.07 5561.35 2700.12 5450.05 2612.19 5098.35C2583.32 4982.89 2569.01 4841.52 2573.02 4669.35" stroke="black" stroke-width="55"/>
<path d="M2349.52 4653.35C2343.94 4799.29 2323.56 4936.86 2286.26 5056.35C2203.2 5322.48 2036.22 5498.91 1762.02 5478.35C1414.42 5464.59 1280.91 5221.62 1244.62 4877.85C1234.36 4780.61 1231.87 4675.31 1234.52 4564.85" stroke="black" stroke-width="55"/>
<path d="M2137.02 510.345C2448.2 498.187 2629.93 507.653 2970.02 554.345M3933.02 1038.85C4114.05 1409 4163.52 1616.58 4160.02 1987.35C4171.46 2219.71 4167.33 2367.87 4136.52 2671.85C4404.02 2838.85 4687.03 3342.85 4575.53 3610.35" stroke="black" stroke-width="55"/>
<path d="M2970.02 554.345C2629.93 507.653 2448.2 498.187 2137.02 510.345C1741.61 117.219 1562.2 -25.6274 1419.52 44.8463C1229.04 154.346 1207.56 505.612 1140.02 1032.85C945.632 1336.43 884.255 1617.57 848.518 2291.35V2479.35H803.518H502.518C286.133 2531.54 204.721 2565.46 174.018 2639.35V2859.35C171.024 2910.25 176.525 2927.61 221.018 2959.85C-109.482 3242.35 15.0184 3682.35 356.018 3730.85C427.002 3896.33 616.563 3885.17 851.519 3936.85V4104.35C859.907 4392.8 944.463 4494.11 1231.52 4572.85L3259.02 4723.35C3409.52 4723.35 3586.78 4706.66 3796.02 4593.35C4061.23 4404.34 4099.18 4217.84 4115.52 3847.85C4328.52 3874.85 4485.53 3800.35 4575.53 3610.35C4687.03 3342.85 4404.02 2838.85 4136.52 2671.85C4167.33 2367.87 4171.46 2219.71 4160.02 1987.35C4163.52 1616.58 4114.05 1409 3933.02 1038.85C3926.28 491.874 3902.74 305.33 3829.02 166.845C3741.06 59.9222 3693.59 49.9382 3610.52 75.845C3448.42 116.203 3301.66 231.855 2970.02 554.345Z" stroke="black" stroke-width="55"/>
<path d="M1765.15 3301.84C1764.49 3289.66 1755.08 3281.93 1739.56 3281.14C1723.4 3280.32 1714.09 3287.31 1713.36 3297.5C1712.58 3308.55 1724.02 3314.24 1737.05 3317.89L1750.7 3322C1776.76 3329.29 1795.85 3343.69 1794.54 3369.42C1793.1 3397.7 1770.08 3414.43 1732.66 3412.53C1695.45 3410.63 1672.51 3392.2 1673.34 3359.2L1704.38 3360.78C1704.66 3376.36 1716.59 3384.85 1733.6 3385.72C1750.39 3386.57 1761.64 3379.26 1762.22 3367.77C1762.75 3357.36 1753.43 3351.98 1736.85 3346.87L1720.26 3341.98C1694.65 3334.28 1679.36 3320.5 1680.51 3297.96C1681.94 3269.89 1707.54 3252.65 1741.13 3254.36C1775.15 3256.09 1796.73 3276.16 1795.77 3303.4L1765.15 3301.84ZM1916.22 3265.4L1948.33 3267.04L1943.24 3366.97C1941.52 3400.77 1914.87 3421.8 1876.6 3419.85C1838.33 3417.9 1814.16 3394.29 1815.88 3360.49L1820.97 3260.56L1852.86 3262.18L1847.91 3359.56C1847.01 3377.21 1858.89 3390.81 1878.03 3391.79C1897.38 3392.77 1910.37 3380.43 1911.27 3362.78L1916.22 3265.4ZM2102.68 3274.89L2094.85 3428.83L2067.21 3427.42L2004.58 3326.18L2003.3 3326.11L1998.32 3423.92L1966.43 3422.29L1974.27 3268.36L2002.33 3269.79L2064.54 3371.01L2066.03 3371.09L2071.01 3273.28L2102.68 3274.89ZM2175.01 3432.91L2120.79 3430.15L2128.62 3276.22L2183.48 3279.01C2229.83 3281.37 2256.64 3311.72 2254.2 3359.56C2251.74 3407.82 2221.99 3435.3 2175.01 3432.91ZM2154.08 3404.34L2175.13 3405.42C2204.47 3406.91 2220.55 3392.38 2222.31 3357.94C2224.05 3323.7 2209.51 3307.83 2180.38 3306.35L2159.12 3305.27L2154.08 3404.34ZM2290.46 3438.78L2256.01 3437.03L2317.21 3285.81L2358.25 3287.9L2403.57 3444.54L2369.34 3442.8L2359.66 3406.71L2303.96 3403.87L2290.46 3438.78ZM2313.3 3379.41L2352.85 3381.42L2336.5 3321.54L2335.44 3321.49L2313.3 3379.41ZM2403.75 3290.22L2439.68 3292.05L2471.81 3360.19L2473.3 3360.27L2511.97 3295.73L2547.9 3297.55L2486.73 3393.78L2483.94 3448.63L2452.04 3447.01L2454.84 3392.15L2403.75 3290.22Z" fill="#E24732"/>
<path d="M3011.52 3216.35C3151.12 3216.35 3266.52 3338.64 3266.52 3492.35C3266.52 3646.06 3151.12 3768.35 3011.52 3768.35C2871.92 3768.35 2756.52 3646.06 2756.52 3492.35C2756.52 3338.64 2871.92 3216.35 3011.52 3216.35Z" fill="#FFDA3B" stroke="#F0A800" stroke-width="36"/>
<path d="M2916.02 3523.85L3104.52 3539.85C3088.23 3671 2916.02 3696.85 2916.02 3523.85Z" stroke="#F0A800" stroke-width="36" stroke-linecap="round"/>
<path d="M2885.02 3450.85C2905.88 3411.65 2919.18 3406.09 2948.02 3447.35M3066.52 3450.85C3080.52 3421.35 3124.52 3423.35 3134.02 3460.85" stroke="#F0A800" stroke-width="36" stroke-linecap="round"/>
<path d="M3070.53 3824.35C3038.03 3822.85 2967.03 3818.35 2937.03 3817.35C2907.03 3816.35 2970.53 3990.35 2999.03 3965.35C3027.53 3940.35 3103.03 3825.85 3070.53 3824.35Z" fill="#FFDA3D" stroke="#F0A800" stroke-width="36" stroke-linecap="round"/>
<path d="M3271.86 3690.96C3249.11 3714.21 3198.48 3764.2 3177.76 3785.92C3157.04 3807.63 3329.15 3876.09 3329.47 3838.18C3329.79 3800.27 3294.62 3667.71 3271.86 3690.96Z" fill="#FFDA3D" stroke="#F0A800" stroke-width="36" stroke-linecap="round"/>
<path d="M3324.51 3450.47C3322.33 3482.93 3316.33 3553.82 3314.69 3583.79C3313.06 3613.76 3488.36 3553.95 3463.97 3524.93C3439.58 3495.91 3326.7 3418 3324.51 3450.47Z" fill="#FFDA3D" stroke="#F0A800" stroke-width="36" stroke-linecap="round"/>
<path d="M3219 3255.41C3238.43 3281.51 3279.93 3339.29 3298.17 3363.13C3316.41 3386.97 3410.78 3227.6 3373.38 3221.39C3335.98 3215.18 3199.56 3229.32 3219 3255.41Z" fill="#FFDA3D" stroke="#F0A800" stroke-width="36" stroke-linecap="round"/>
<path d="M2956.73 3158.75C2989.26 3158.61 3060.4 3159.52 3090.41 3159.01C3120.42 3158.49 3048.22 2987.92 3021.02 3014.33C2993.82 3040.73 2924.19 3158.9 2956.73 3158.75Z" fill="#FFDA3D" stroke="#F0A800" stroke-width="36" stroke-linecap="round"/>
<path d="M2737.51 3336.43C2756.71 3310.17 2799.69 3253.47 2817.09 3229.02C2834.5 3204.57 2654.38 3161.37 2659.48 3198.94C2664.57 3236.51 2718.3 3362.69 2737.51 3336.43Z" fill="#FFDA3D" stroke="#F0A800" stroke-width="36" stroke-linecap="round"/>
<path d="M2698.67 3566.82C2699.55 3534.3 2702.68 3463.22 2703.1 3433.21C2703.53 3403.2 2530.78 3470.03 2556.32 3498.04C2581.87 3526.06 2697.8 3599.34 2698.67 3566.82Z" fill="#FFDA3D" stroke="#F0A800" stroke-width="36" stroke-linecap="round"/>
<path d="M2835.85 3759.36C2813.46 3735.76 2765.39 3683.31 2744.46 3661.8C2723.52 3640.29 2648.72 3809.74 2686.6 3811.47C2724.47 3813.19 2858.25 3782.96 2835.85 3759.36Z" fill="#FFDA3D" stroke="#F0A800" stroke-width="36" stroke-linecap="round"/>
<defs>
<filter id="filter0_d_1015_121" x="2875.52" y="1576.35" width="623" height="559" filterUnits="userSpaceOnUse" color-interpolation-filters="sRGB">
<feFlood flood-opacity="0" result="BackgroundImageFix"/>
<feColorMatrix in="SourceAlpha" type="matrix" values="0 0 0 0 0 0 0 0 0 0 0 0 0 0 0 0 0 0 127 0" result="hardAlpha"/>
<feMorphology radius="80" operator="dilate" in="SourceAlpha" result="effect1_dropShadow_1015_121"/>
<feOffset/>
<feGaussianBlur stdDeviation="50"/>
<feComposite in2="hardAlpha" operator="out"/>
<feColorMatrix type="matrix" values="0 0 0 0 0.976471 0 0 0 0 0.537255 0 0 0 0 0.470588 0 0 0 1 0"/>
<feBlend mode="normal" in2="BackgroundImageFix" result="effect1_dropShadow_1015_121"/>
<feBlend mode="normal" in="SourceGraphic" in2="effect1_dropShadow_1015_121" result="shape"/>
</filter>
<filter id="filter1_d_1015_121" x="1075.52" y="1477.35" width="623" height="559" filterUnits="userSpaceOnUse" color-interpolation-filters="sRGB">
<feFlood flood-opacity="0" result="BackgroundImageFix"/>
<feColorMatrix in="SourceAlpha" type="matrix" values="0 0 0 0 0 0 0 0 0 0 0 0 0 0 0 0 0 0 127 0" result="hardAlpha"/>
<feMorphology radius="80" operator="dilate" in="SourceAlpha" result="effect1_dropShadow_1015_121"/>
<feOffset/>
<feGaussianBlur stdDeviation="50"/>
<feComposite in2="hardAlpha" operator="out"/>
<feColorMatrix type="matrix" values="0 0 0 0 0.976471 0 0 0 0 0.537255 0 0 0 0 0.470588 0 0 0 1 0"/>
<feBlend mode="normal" in2="BackgroundImageFix" result="effect1_dropShadow_1015_121"/>
<feBlend mode="normal" in="SourceGraphic" in2="effect1_dropShadow_1015_121" result="shape"/>
</filter>
<filter id="filter2_d_1015_121" x="789.011" y="1228.84" width="3084.01" height="932.518" filterUnits="userSpaceOnUse" color-interpolation-filters="sRGB">
<feFlood flood-opacity="0" result="BackgroundImageFix"/>
<feColorMatrix in="SourceAlpha" type="matrix" values="0 0 0 0 0 0 0 0 0 0 0 0 0 0 0 0 0 0 127 0" result="hardAlpha"/>
<feOffset dy="4"/>
<feGaussianBlur stdDeviation="2"/>
<feComposite in2="hardAlpha" operator="out"/>
<feColorMatrix type="matrix" values="0 0 0 0 0 0 0 0 0 0 0 0 0 0 0 0 0 0 0.25 0"/>
<feBlend mode="normal" in2="BackgroundImageFix" result="effect1_dropShadow_1015_121"/>
<feBlend mode="normal" in="SourceGraphic" in2="effect1_dropShadow_1015_121" result="shape"/>
</filter>
<linearGradient id="paint0_linear_1015_121" x1="538.077" y1="2942.37" x2="1500.96" y2="2920.82" gradientUnits="userSpaceOnUse">
<stop stop-color="#B98F24"/>
<stop offset="0.220342" stop-color="#E6C853"/>
<stop offset="0.568151" stop-color="#CA9823"/>
<stop offset="0.791056" stop-color="#FFC93A"/>
</linearGradient>
<linearGradient id="paint1_linear_1015_121" x1="784.769" y1="2480.35" x2="784.769" y2="3932.35" gradientUnits="userSpaceOnUse">
<stop stop-color="#965F00"/>
<stop offset="1" stop-color="#523400"/>
</linearGradient>
<linearGradient id="paint2_linear_1015_121" x1="1092.97" y1="2983.85" x2="1092.97" y2="3128.85" gradientUnits="userSpaceOnUse">
<stop stop-color="#965F00"/>
<stop offset="1" stop-color="#523400"/>
</linearGradient>
<linearGradient id="paint3_linear_1015_121" x1="677.269" y1="2595.85" x2="677.269" y2="2758.85" gradientUnits="userSpaceOnUse">
<stop stop-color="#965F00"/>
<stop offset="1" stop-color="#523400"/>
</linearGradient>
<linearGradient id="paint4_linear_1015_121" x1="683.769" y1="2561.83" x2="683.769" y2="2796.54" gradientUnits="userSpaceOnUse">
<stop stop-color="#965F00"/>
<stop offset="1" stop-color="#523400"/>
</linearGradient>
<linearGradient id="paint5_linear_1015_121" x1="674.018" y1="2623.79" x2="674.018" y2="2729.01" gradientUnits="userSpaceOnUse">
<stop stop-color="#965F00"/>
<stop offset="1" stop-color="#523400"/>
</linearGradient>
<linearGradient id="paint6_linear_1015_121" x1="1117.52" y1="3441.85" x2="1117.52" y2="3932.85" gradientUnits="userSpaceOnUse">
<stop stop-color="#965F00"/>
<stop offset="1" stop-color="#523400"/>
</linearGradient>
<linearGradient id="paint7_linear_1015_121" x1="580.561" y1="3465.35" x2="580.561" y2="3718.85" gradientUnits="userSpaceOnUse">
<stop stop-color="#965F00"/>
<stop offset="1" stop-color="#523400"/>
</linearGradient>
<linearGradient id="paint8_linear_1015_121" x1="355.519" y1="3515.35" x2="355.519" y2="3723.85" gradientUnits="userSpaceOnUse">
<stop stop-color="#965F00"/>
<stop offset="1" stop-color="#523400"/>
</linearGradient>
<linearGradient id="paint9_linear_1015_121" x1="836.769" y1="3469.35" x2="836.769" y2="3725.01" gradientUnits="userSpaceOnUse">
<stop stop-color="#965F00"/>
<stop offset="1" stop-color="#523400"/>
</linearGradient>
<linearGradient id="paint10_linear_1015_121" x1="316.019" y1="3305.35" x2="316.019" y2="3489.85" gradientUnits="userSpaceOnUse">
<stop stop-color="#965F00"/>
<stop offset="1" stop-color="#523400"/>
</linearGradient>
<linearGradient id="paint11_linear_1015_121" x1="1339.02" y1="3294.35" x2="1339.02" y2="3478.85" gradientUnits="userSpaceOnUse">
<stop stop-color="#965F00"/>
<stop offset="1" stop-color="#523400"/>
</linearGradient>
<linearGradient id="paint12_linear_1015_121" x1="324.019" y1="3035.35" x2="324.019" y2="3338.35" gradientUnits="userSpaceOnUse">
<stop stop-color="#965F00"/>
<stop offset="1" stop-color="#523400"/>
</linearGradient>
<linearGradient id="paint13_linear_1015_121" x1="1348.02" y1="3008.36" x2="1339.02" y2="3305.36" gradientUnits="userSpaceOnUse">
<stop stop-color="#965F00"/>
<stop offset="1" stop-color="#523400"/>
</linearGradient>
<linearGradient id="paint14_linear_1015_121" x1="831.269" y1="3294.35" x2="831.269" y2="3424.66" gradientUnits="userSpaceOnUse">
<stop stop-color="#965F00"/>
<stop offset="1" stop-color="#523400"/>
</linearGradient>
<linearGradient id="paint15_linear_1015_121" x1="760.075" y1="2480.35" x2="760.075" y2="3206.61" gradientUnits="userSpaceOnUse">
<stop stop-color="#965F00"/>
<stop offset="1" stop-color="#523400"/>
</linearGradient>
</defs>
</svg>
