<svg width="180" height="180" viewBox="0 0 180 180" fill="none" xmlns="http://www.w3.org/2000/svg">
<g clip-path="url(#clip0_4183_1761)">
<path d="M172.329 63.7732L156.815 48.2588C155.563 47.0239 153.894 46.3029 152.137 46.2378C150.38 46.1727 148.662 46.7683 147.323 47.9072C145.254 49.6676 142.6 50.5868 139.886 50.4826C137.172 50.3784 134.597 49.2585 132.669 47.3447C130.757 45.4177 129.637 42.8427 129.533 40.1295C129.429 37.4164 130.348 34.7631 132.107 32.6951C133.246 31.3555 133.841 29.6378 133.776 27.8807C133.711 26.1236 132.99 24.4546 131.755 23.2029L116.227 7.67089C114.915 6.3611 113.136 5.62549 111.282 5.62549C109.428 5.62549 107.65 6.3611 106.337 7.67089L81.605 32.3998C80.0783 33.9325 78.9268 35.7975 78.2405 37.849C78.1069 38.2435 77.8843 38.6019 77.5898 38.8963C77.2953 39.1908 76.9369 39.4135 76.5425 39.5471C74.4901 40.2332 72.6248 41.3861 71.0932 42.915L7.67137 106.337C6.36159 107.649 5.62598 109.428 5.62598 111.282C5.62598 113.136 6.36159 114.914 7.67137 116.226L23.2034 131.741C24.4551 132.976 26.1241 133.697 27.8812 133.762C29.6383 133.827 31.356 133.231 32.6956 132.092C34.7589 130.318 37.4166 129.388 40.1361 129.49C42.8557 129.593 45.4362 130.719 47.3606 132.643C49.2849 134.567 50.411 137.148 50.5131 139.867C50.6152 142.587 49.6859 145.245 47.9112 147.308C46.7724 148.648 46.1767 150.365 46.2418 152.122C46.3069 153.88 47.0279 155.548 48.2628 156.8L63.7772 172.315C65.0895 173.624 66.8679 174.36 68.722 174.36C70.576 174.36 72.3544 173.624 73.6667 172.315L137.089 108.893C138.617 107.362 139.77 105.498 140.457 103.447C140.59 103.051 140.812 102.692 141.108 102.397C141.403 102.101 141.762 101.878 142.158 101.745C144.209 101.059 146.073 99.9079 147.604 98.381L172.333 73.6486C173.638 72.3364 174.37 70.5608 174.369 68.7102C174.369 66.8595 173.635 65.0845 172.329 63.7732ZM92.0429 53.3494C91.5205 53.8719 90.9004 54.2863 90.2178 54.5691C89.5353 54.8518 88.8037 54.9974 88.0649 54.9974C87.3261 54.9974 86.5946 54.8518 85.912 54.5691C85.2295 54.2863 84.6093 53.8719 84.087 53.3494L80.0405 49.3029C79.0113 48.2427 78.4406 46.8201 78.4517 45.3425C78.4628 43.865 79.0549 42.4511 80.1 41.4065C81.145 40.3619 82.5591 39.7705 84.0367 39.76C85.5143 39.7496 86.9366 40.3209 87.9964 41.3506L92.0429 45.3935C92.5653 45.9159 92.9798 46.536 93.2625 47.2186C93.5453 47.9011 93.6908 48.6327 93.6908 49.3715C93.6908 50.1103 93.5453 50.8418 93.2625 51.5244C92.9798 52.2069 92.5653 52.8271 92.0429 53.3494ZM107.512 68.8181C106.457 69.8722 105.027 70.4644 103.535 70.4644C102.044 70.4644 100.614 69.8722 99.5593 68.8181L95.6921 64.951C94.6371 63.896 94.0444 62.465 94.0444 60.973C94.0444 59.481 94.6371 58.0501 95.6921 56.9951C96.7471 55.9401 98.178 55.3474 99.67 55.3474C101.162 55.3474 102.593 55.9401 103.648 56.9951L107.515 60.8623C108.039 61.3846 108.455 62.0052 108.739 62.6886C109.023 63.372 109.17 64.1047 109.17 64.8448C109.17 65.5848 109.025 66.3177 108.741 67.0013C108.458 67.6849 108.042 68.3059 107.519 68.8287L107.512 68.8181ZM122.98 84.2869C122.458 84.8094 121.838 85.2238 121.155 85.5066C120.473 85.7893 119.741 85.9349 119.002 85.9349C118.264 85.9349 117.532 85.7893 116.85 85.5066C116.167 85.2238 115.547 84.8094 115.024 84.2869L111.157 80.4197C110.128 79.3595 109.557 77.9369 109.569 76.4593C109.58 74.9818 110.172 73.5679 111.217 72.5233C112.262 71.4787 113.676 70.8873 115.153 70.8768C116.631 70.8663 118.053 71.4377 119.113 72.4674L122.98 76.3346C123.506 76.856 123.924 77.4761 124.209 78.1593C124.495 78.8425 124.643 79.5754 124.644 80.3159C124.646 81.0563 124.501 81.7898 124.219 82.4743C123.936 83.1588 123.521 83.7807 122.998 84.3045L122.98 84.2869ZM138.6 99.9455C138.078 100.468 137.458 100.882 136.775 101.165C136.093 101.448 135.361 101.593 134.622 101.593C133.884 101.593 133.152 101.448 132.469 101.165C131.787 100.882 131.167 100.468 130.644 99.9455L126.623 95.9025C126.089 95.3817 125.665 94.7601 125.373 94.0737C125.082 93.3874 124.931 92.65 124.927 91.9045C124.924 91.159 125.068 90.4203 125.353 89.7312C125.637 89.0421 126.056 88.4164 126.584 87.8905C127.113 87.3647 127.74 86.9491 128.431 86.668C129.121 86.3868 129.861 86.2458 130.606 86.2529C131.352 86.2601 132.088 86.4154 132.773 86.7098C133.458 87.0042 134.078 87.4318 134.596 87.9678L138.621 92.0072C139.144 92.5298 139.558 93.1501 139.84 93.8328C140.123 94.5154 140.268 95.2471 140.268 95.9859C140.267 96.7247 140.121 97.4562 139.838 98.1386C139.555 98.821 139.141 99.441 138.618 99.9631L138.6 99.9455Z" fill="#FE8401"/>
</g>
<defs>
<clipPath id="clip0_4183_1761">
<rect width="180" height="180" fill="white"/>
</clipPath>
</defs>
</svg>
